SplineFontDB: 3.2
FontName: NewCMUncial10-Book
FullName: NewCMUncial10-Book
FamilyName: NewCMUncial10
Weight: Book
Copyright: Copyright (c) 2021, Antonis Tsolomitis
Version: 4.1
ItalicAngle: 0
UnderlinePosition: -100
UnderlineWidth: 50
Ascent: 750
Descent: 250
InvalidEm: 0
LayerCount: 2
Layer: 0 0 "Back" 1
Layer: 1 0 "Fore" 0
UniqueID: 4007040
StyleMap: 0x0000
FSType: 0
OS2Version: 0
OS2_WeightWidthSlopeOnly: 0
OS2_UseTypoMetrics: 0
CreationTime: 1636901363
ModificationTime: 1637128121
OS2TypoAscent: 0
OS2TypoAOffset: 1
OS2TypoDescent: 0
OS2TypoDOffset: 1
OS2TypoLinegap: 90
OS2WinAscent: 0
OS2WinAOffset: 1
OS2WinDescent: 0
OS2WinDOffset: 1
HheadAscent: 0
HheadAOffset: 1
HheadDescent: 0
HheadDOffset: 1
Lookup: 1 0 0 "'salt' Stylistic Alternatives lookup 0" { "'salt' Stylistic Alternatives lookup 0-1"  } ['salt' ('DFLT' <'dflt' > 'grek' <'dflt' > 'latn' <'dflt' > ) ]
MarkAttachClasses: 1
DEI: 91125
LangName: 1033
Encoding: UnicodeFull
UnicodeInterp: none
NameList: AGL For New Fonts
DisplaySize: -72
AntiAlias: 1
FitToEm: 0
WinInfo: 0 8 6
BeginPrivate: 8
BlueValues 63 [-74.000 0.000 430.000 448.000 665.000 667.000 677.000 705.000]
BlueScale 12 0.0135135135
StdHW 8 [31.000]
StdVW 8 [89.000]
StemSnapH 15 [22.000 31.000]
StemSnapV 15 [28.000 89.000]
ForceBoldThreshold 2 .5
ForceBold 5 false
EndPrivate
BeginChars: 1114120 167

StartChar: exclam
Encoding: 33 33 0
Width: 278
Flags: W
LayerCount: 2
Fore
SplineSet
156 210 m 2
 154 194 152 185 139 185 c 0
 126 185 124 194 122 211 c 2
 86 661 l 2
 83 697 114 716 139 716 c 0
 164 716 195 697 192 661 c 2
 156 210 l 2
139 0 m 0
 110 0 86 26 86 56 c 0
 86 87 110 113 139 113 c 0
 168 113 192 87 192 56 c 0
 192 26 168 0 139 0 c 0
EndSplineSet
EndChar

StartChar: quotedbl
Encoding: 34 34 1
Width: 374
Flags: W
LayerCount: 2
Fore
SplineSet
249 423 m 1
 217 423 l 1
 196 667 l 2
 194 689 212 705 233 705 c 0
 254 705 272 689 270 667 c 2
 249 423 l 1
157 423 m 1
 125 423 l 1
 104 667 l 1
 104 670 l 2
 104 691 121 705 141 705 c 0
 162 705 180 689 178 667 c 2
 157 423 l 1
EndSplineSet
EndChar

StartChar: numbersign
Encoding: 35 35 2
Width: 833
Flags: W
LayerCount: 2
Fore
SplineSet
739 130 m 2
 521 130 l 1
 442 -167 l 2
 438 -181 434 -194 416 -194 c 0
 403 -194 392 -183 392 -170 c 0
 392 -166 395 -154 396 -151 c 2
 472 130 l 1
 294 130 l 1
 215 -167 l 2
 211 -181 207 -194 190 -194 c 0
 176 -194 166 -183 166 -170 c 0
 166 -166 169 -154 170 -151 c 2
 246 130 l 1
 93 130 l 2
 77 130 56 131 56 154 c 0
 56 176 77 178 94 178 c 2
 260 178 l 1
 297 322 l 1
 94 322 l 2
 77 322 56 324 56 346 c 0
 56 369 77 370 93 370 c 2
 311 370 l 1
 390 667 l 2
 394 681 398 694 416 694 c 0
 429 694 440 683 440 670 c 0
 440 666 437 654 436 651 c 2
 360 370 l 1
 538 370 l 1
 617 667 l 2
 621 681 625 694 642 694 c 0
 656 694 666 683 666 670 c 0
 666 666 663 654 662 651 c 2
 586 370 l 1
 739 370 l 2
 755 370 776 369 776 346 c 0
 776 324 755 322 738 322 c 2
 572 322 l 1
 535 178 l 1
 738 178 l 2
 755 178 776 176 776 154 c 0
 776 131 755 130 739 130 c 2
346 322 m 1
 308 178 l 1
 486 178 l 1
 524 322 l 1
 346 322 l 1
EndSplineSet
EndChar

StartChar: dollar
Encoding: 36 36 3
Width: 500
Flags: W
LayerCount: 2
Fore
SplineSet
269 -10 m 1
 269 -56 l 1
 230 -56 l 1
 230 -11 l 1
 108 -2 56 91 56 180 c 0
 56 232 99 234 105 234 c 0
 131 234 154 215 154 185 c 0
 154 156 134 135 105 135 c 0
 102 135 98 136 94 136 c 1
 108 80 151 34 230 28 c 1
 230 316 l 1
 182 329 149 338 111 376 c 0
 93 394 56 442 56 511 c 0
 56 602 122 692 230 704 c 1
 230 750 l 1
 269 750 l 1
 269 705 l 1
 378 698 443 624 443 527 c 0
 443 475 397 474 394 474 c 0
 372 474 345 490 345 523 c 0
 345 553 366 573 394 573 c 0
 399 573 402 573 404 572 c 1
 388 622 345 661 269 666 c 1
 269 406 l 1
 314 394 350 384 389 341 c 0
 398 331 443 280 443 196 c 0
 443 94 372 1 269 -10 c 1
230 665 m 1
 157 656 114 597 114 541 c 0
 114 522 117 442 230 415 c 1
 230 665 l 1
269 306 m 1
 269 29 l 1
 341 40 385 103 385 167 c 0
 385 190 379 281 269 306 c 1
EndSplineSet
EndChar

StartChar: percent
Encoding: 37 37 4
Width: 833
Flags: W
LayerCount: 2
Fore
SplineSet
643 -56 m 0
 566 -56 494 27 494 148 c 0
 494 265 565 351 643 351 c 0
 717 351 776 261 776 147 c 0
 776 36 719 -56 643 -56 c 0
584 641 m 1
 564 630 520 612 462 612 c 0
 428 612 381 617 321 649 c 1
 338 601 338 559 338 546 c 0
 338 435 281 343 205 343 c 0
 128 343 56 426 56 547 c 0
 56 664 127 750 205 750 c 0
 238 750 260 735 279 717 c 0
 333 667 393 642 461 642 c 0
 533 642 597 669 646 735 c 0
 652 742 658 750 670 750 c 0
 683 750 694 739 694 726 c 0
 694 720 692 716 685 706 c 2
 185 -39 l 2
 179 -49 175 -56 162 -56 c 0
 150 -56 138 -45 138 -32 c 0
 138 -31 139 -24 148 -10 c 2
 584 641 l 1
644 321 m 0
 627 321 563 311 563 147 c 0
 563 -16 628 -26 644 -26 c 0
 692 -26 743 41 743 148 c 0
 743 252 693 321 644 321 c 0
206 720 m 0
 189 720 125 710 125 546 c 0
 125 383 190 373 206 373 c 0
 254 373 305 440 305 547 c 0
 305 651 255 720 206 720 c 0
EndSplineSet
EndChar

StartChar: ampersand
Encoding: 38 38 5
Width: 912
Flags: W
LayerCount: 2
Fore
SplineSet
851 346 m 1
 827 359 822 362 794 366 c 0
 671 384 573 294 557 184 c 0
 543 83 601 31 651 24 c 0
 689 19 724 35 773 103 c 1
 795 83 808 61 809 33 c 1
 731 -18 655 -9 623 -4 c 0
 600 -1 578 5 558 14 c 1
 518 -9 469 -22 405 -22 c 0
 218 -22 56 135 56 342 c 0
 56 546 217 705 405 705 c 0
 499 705 670 680 670 537 c 0
 670 501 655 471 629 451 c 1
 629 443 l 1
 796 419 l 2
 805 418 840 415 856 448 c 1
 888 441 l 1
 851 346 l 1
572 398 m 2
 552 401 536 404 524 404 c 0
 512 405 504 404 497 399 c 0
 484 391 477 370 464 316 c 1
 431 320 l 1
 466 467 l 1
 495 464 525 459 554 463 c 0
 583 466 605 478 605 511 c 0
 605 577 551 666 416 666 c 0
 357 666 166 634 166 341 c 0
 166 49 357 17 417 17 c 0
 458 17 492 23 520 37 c 1
 478 71 456 121 465 180 c 0
 484 310 560 346 645 384 c 1
 646 388 l 1
 572 398 l 2
EndSplineSet
Substitution2: "'salt' Stylistic Alternatives lookup 0-1" ampersand.alt
EndChar

StartChar: quotesingle
Encoding: 39 39 6
Width: 278
Flags: W
LayerCount: 2
Fore
SplineSet
154 423 m 1
 124 423 l 1
 104 667 l 2
 102 689 119 705 139 705 c 0
 159 705 176 689 174 667 c 2
 154 423 l 1
EndSplineSet
EndChar

StartChar: parenleft
Encoding: 40 40 7
Width: 389
Flags: W
LayerCount: 2
Fore
SplineSet
317 -250 m 0
 305 -250 221 -183 163 -61 c 0
 110 52 99 172 99 250 c 0
 99 334 111 444 160 554 c 0
 217 680 305 750 317 750 c 0
 325 750 331 746 331 736 c 0
 331 731 329 728 317 716 c 0
 199 594 163 422 163 250 c 0
 163 99 194 -88 313 -211 c 0
 329 -228 331 -231 331 -236 c 0
 331 -246 325 -250 317 -250 c 0
EndSplineSet
EndChar

StartChar: parenright
Encoding: 41 41 8
Width: 389
Flags: W
LayerCount: 2
Fore
SplineSet
228 -54 m 0
 171 -180 83 -250 71 -250 c 0
 63 -250 57 -244 57 -236 c 0
 57 -231 59 -228 71 -216 c 0
 190 -93 225 81 225 250 c 0
 225 457 171 614 76 710 c 0
 59 728 57 731 57 736 c 0
 57 744 63 750 71 750 c 0
 83 750 167 683 225 561 c 0
 278 448 289 328 289 250 c 0
 289 166 277 56 228 -54 c 0
EndSplineSet
EndChar

StartChar: asterisk
Encoding: 42 42 9
Width: 500
Flags: W
LayerCount: 2
Fore
SplineSet
404 411 m 0
 396 411 392 413 386 418 c 2
 265 506 l 1
 279 348 l 2
 279 333 267 319 249 319 c 0
 235 319 220 330 220 348 c 2
 234 506 l 1
 102 411 l 1
 65 411 65 443 65 443 c 1
 65 457 70 465 90 474 c 2
 218 535 l 1
 88 596 l 2
 70 605 65 614 65 626 c 0
 65 641 77 658 95 658 c 0
 103 658 105 656 119 646 c 2
 234 563 l 1
 220 721 l 2
 220 736 232 750 250 750 c 0
 264 750 279 739 279 721 c 2
 265 563 l 1
 367 638 l 2
 373 643 389 656 398 657 c 0
 400 658 402 658 404 658 c 0
 422 658 434 641 434 626 c 0
 434 612 429 604 409 595 c 2
 281 534 l 1
 411 473 l 2
 429 464 434 455 434 443 c 0
 434 428 422 411 404 411 c 0
EndSplineSet
EndChar

StartChar: plus
Encoding: 43 43 10
Width: 778
Flags: W
LayerCount: 2
Fore
SplineSet
684 226 m 2
 413 226 l 1
 413 -46 l 2
 413 -62 412 -83 389 -83 c 0
 366 -83 365 -62 365 -46 c 2
 365 226 l 1
 93 226 l 2
 77 226 56 227 56 250 c 0
 56 273 77 274 93 274 c 2
 365 274 l 1
 365 546 l 2
 365 562 366 583 389 583 c 0
 412 583 413 562 413 546 c 2
 413 274 l 1
 684 274 l 2
 700 274 721 273 721 250 c 0
 721 227 700 226 684 226 c 2
EndSplineSet
EndChar

StartChar: comma
Encoding: 44 44 11
Width: 278
Flags: W
LayerCount: 2
Fore
SplineSet
114 -193 m 0
 107 -193 101 -187 101 -178 c 0
 101 -174 102 -172 105 -169 c 0
 151 -119 173 -63 173 6 c 1
 163 -1 152 -5 139 -5 c 0
 103 -5 86 24 86 50 c 0
 86 78 104 106 139 106 c 0
 180 106 203 62 203 0 c 0
 203 -112 129 -193 114 -193 c 0
EndSplineSet
EndChar

StartChar: hyphen
Encoding: 45 45 12
Width: 333
Flags: W
LayerCount: 2
Fore
SplineSet
11 187 m 1
 11 245 l 1
 276 245 l 1
 276 187 l 1
 11 187 l 1
EndSplineSet
EndChar

StartChar: period
Encoding: 46 46 13
Width: 278
Flags: W
LayerCount: 2
Fore
SplineSet
139 0 m 0
 110 0 86 24 86 53 c 0
 86 82 110 106 139 106 c 0
 168 106 192 82 192 53 c 0
 192 24 168 0 139 0 c 0
EndSplineSet
EndChar

StartChar: zero
Encoding: 48 48 14
Width: 570
Flags: W
LayerCount: 2
Fore
SplineSet
443 40 m 0
 404 -5 344 -22 285 -22 c 0
 226 -22 166 -5 127 40 c 0
 83 91 74 160 74 225 c 0
 74 290 83 359 127 410 c 0
 166 455 226 472 285 472 c 0
 344 472 404 455 443 410 c 0
 487 359 496 290 496 225 c 0
 496 160 487 91 443 40 c 0
375 388 m 0
 356 422 323 442 285 442 c 0
 247 442 214 422 195 388 c 0
 167 340 164 282 164 225 c 0
 164 168 167 110 195 62 c 0
 214 28 247 8 285 8 c 0
 323 8 356 28 375 62 c 0
 403 110 406 168 406 225 c 0
 406 282 403 340 375 388 c 0
EndSplineSet
EndChar

StartChar: one
Encoding: 49 49 15
Width: 404
Flags: W
LayerCount: 2
Fore
SplineSet
208 4 m 1
 42 0 l 1
 42 38 l 1
 93 38 l 2
 128 38 164 45 164 83 c 2
 164 405 l 1
 126 390 80 390 37 390 c 1
 37 429 l 1
 90 429 140 433 185 452 c 0
 196 458 213 472 226 472 c 0
 243 472 245 449 245 435 c 2
 245 82 l 2
 245 42 283 38 319 38 c 2
 367 38 l 1
 367 0 l 1
 208 4 l 1
EndSplineSet
EndChar

StartChar: two
Encoding: 50 50 16
Width: 554
Flags: W
LayerCount: 2
Fore
SplineSet
455 16 m 2
 454 9 450 0 440 0 c 2
 75 0 l 1
 75 8 74 13 74 18 c 0
 74 38 90 44 103 53 c 2
 258 162 l 2
 310 198 382 260 382 331 c 0
 382 400 313 434 250 434 c 0
 206 434 164 420 138 386 c 1
 157 380 171 367 171 344 c 0
 171 323 155 302 129 302 c 0
 105 302 86 318 86 347 c 0
 86 441 196 472 261 472 c 0
 350 472 480 444 480 330 c 0
 480 252 419 207 357 172 c 2
 197 80 l 1
 384 80 l 2
 400 80 412 80 423 83 c 0
 433 85 436 99 439 112 c 0
 442 122 446 144 460 144 c 2
 481 144 l 1
 455 16 l 2
EndSplineSet
EndChar

StartChar: three
Encoding: 51 51 17
Width: 563
Flags: W
LayerCount: 2
Fore
SplineSet
276 -216 m 0
 168 -216 74 -150 74 -57 c 0
 74 -10 108 4 133 4 c 0
 163 4 192 -17 192 -55 c 0
 192 -92 164 -115 131 -114 c 1
 165 -165 233 -180 273 -180 c 0
 314 -180 380 -154 380 -21 c 0
 380 75 344 139 267 139 c 2
 224 139 l 2
 204 139 197 141 197 154 c 0
 197 166 205 168 215 170 c 0
 222 170 245 172 253 172 c 0
 277 174 310 176 338 222 c 0
 363 264 364 321 364 333 c 0
 364 419 313 439 274 439 c 0
 241 439 182 428 151 386 c 1
 171 385 208 379 208 333 c 0
 208 302 187 278 154 278 c 0
 124 278 100 299 100 334 c 0
 100 412 178 472 278 472 c 0
 373 472 463 416 463 332 c 0
 463 256 410 188 335 159 c 1
 431 134 489 58 489 -21 c 0
 489 -125 398 -216 276 -216 c 0
EndSplineSet
EndChar

StartChar: four
Encoding: 52 52 18
Width: 517
Flags: W
LayerCount: 2
Fore
SplineSet
382 -2 m 1
 382 -113 l 2
 382 -146 384 -155 452 -155 c 2
 477 -155 l 1
 477 -194 l 1
 433 -191 381 -191 340 -191 c 0
 298 -191 247 -191 203 -194 c 1
 203 -155 l 1
 228 -155 l 2
 296 -155 298 -146 298 -113 c 2
 298 -2 l 1
 37 -2 l 1
 37 34 l 1
 339 471 l 2
 348 484 352 485 362 485 c 0
 381 485 382 479 382 455 c 2
 382 36 l 1
 480 36 l 1
 480 -2 l 1
 382 -2 l 1
304 362 m 1
 76 36 l 1
 304 36 l 1
 304 362 l 1
EndSplineSet
EndChar

StartChar: five
Encoding: 53 53 19
Width: 547
Flags: W
LayerCount: 2
Fore
SplineSet
255 -216 m 0
 143 -216 74 -118 74 -31 c 0
 74 18 111 25 126 25 c 0
 161 25 179 -2 179 -27 c 0
 179 -53 161 -80 126 -80 c 0
 121 -80 118 -79 115 -79 c 1
 134 -133 186 -180 253 -180 c 0
 297 -180 333 -156 355 -118 c 0
 377 -80 378 -28 378 15 c 0
 378 65 376 103 361 138 c 0
 353 156 329 199 281 199 c 0
 204 199 168 147 158 132 c 0
 153 125 150 121 142 121 c 0
 125 121 124 130 124 151 c 2
 124 443 l 2
 124 462 126 471 138 471 c 0
 139 471 144 471 151 468 c 0
 197 448 241 440 280 440 c 0
 345 440 392 460 411 469 c 0
 417 472 421 472 421 472 c 2
 431 472 435 464 435 457 c 0
 435 441 363 350 242 350 c 0
 212 350 182 356 162 362 c 1
 162 184 l 1
 197 215 238 229 283 229 c 0
 391 229 473 128 473 8 c 0
 473 -119 371 -216 255 -216 c 0
EndSplineSet
EndChar

StartChar: six
Encoding: 54 54 20
Width: 563
Flags: W
LayerCount: 2
Fore
SplineSet
283 -22 m 0
 189 -22 74 51 74 316 c 0
 74 536 208 666 336 666 c 0
 419 666 464 617 464 555 c 0
 464 514 432 504 415 504 c 0
 392 504 366 520 366 553 c 0
 366 595 398 601 417 602 c 1
 395 628 360 633 338 633 c 0
 290 633 170 600 170 352 c 2
 170 346 l 1
 191 389 228 430 289 430 c 0
 400 430 489 333 489 205 c 0
 489 73 394 -22 283 -22 c 0
391 278 m 0
 389 301 384 322 376 340 c 0
 356 379 329 399 288 399 c 0
 204 399 172 304 172 227 c 0
 172 185 175 124 190 85 c 0
 195 70 224 14 283 14 c 0
 305 14 349 18 377 76 c 0
 394 112 393 167 393 206 c 0
 393 230 393 255 391 278 c 0
EndSplineSet
EndChar

StartChar: seven
Encoding: 55 55 21
Width: 503
Flags: W
LayerCount: 2
Fore
SplineSet
456 413 m 2
 324 225 l 2
 262 137 253 0 253 -104 c 2
 253 -155 l 2
 253 -165 253 -213 204 -213 c 0
 155 -213 155 -165 155 -155 c 0
 155 -53 184 88 276 219 c 2
 382 369 l 1
 186 369 l 2
 174 369 98 369 93 364 c 0
 81 354 72 291 69 273 c 1
 36 273 l 1
 70 485 l 1
 101 485 l 1
 104 472 104 467 119 462 c 0
 134 457 164 453 224 453 c 2
 466 453 l 1
 466 428 466 426 456 413 c 2
EndSplineSet
EndChar

StartChar: eight
Encoding: 56 56 22
Width: 563
Flags: W
LayerCount: 2
Fore
SplineSet
281 -22 m 0
 177 -22 74 45 74 153 c 0
 74 250 155 306 211 335 c 1
 200 343 187 352 176 360 c 0
 162 370 150 379 145 386 c 0
 102 433 100 479 100 497 c 0
 100 591 182 666 282 666 c 0
 372 666 463 609 463 515 c 0
 463 449 416 398 348 361 c 1
 406 324 422 314 440 294 c 0
 478 252 489 206 489 170 c 0
 489 61 394 -22 281 -22 c 0
281 633 m 0
 212 633 152 593 152 536 c 0
 152 520 155 487 199 459 c 2
 318 381 l 1
 375 415 411 461 411 515 c 0
 411 583 351 633 281 633 c 0
360 240 m 2
 242 315 l 1
 161 270 131 208 131 153 c 0
 131 73 199 14 282 14 c 0
 361 14 432 64 432 134 c 0
 432 192 388 222 360 240 c 2
EndSplineSet
EndChar

StartChar: nine
Encoding: 57 57 23
Width: 563
Flags: W
LayerCount: 2
Fore
SplineSet
239 -216 m 0
 154 -216 99 -175 99 -105 c 0
 99 -64 131 -54 148 -54 c 0
 171 -54 197 -70 197 -103 c 0
 197 -120 189 -149 150 -152 c 1
 177 -179 222 -180 238 -180 c 0
 292 -180 393 -138 393 92 c 2
 393 105 l 1
 369 56 330 21 274 21 c 0
 162 21 74 120 74 246 c 0
 74 321 97 364 138 408 c 0
 180 454 230 472 285 472 c 0
 375 472 489 402 489 135 c 0
 489 -79 368 -216 239 -216 c 0
375 364 m 0
 359 408 328 439 285 439 c 0
 252 439 216 427 190 379 c 0
 171 343 170 298 170 245 c 0
 170 204 169 150 187 112 c 0
 206 73 233 52 275 52 c 0
 358 52 391 144 391 226 c 0
 391 271 387 333 375 364 c 0
EndSplineSet
EndChar

StartChar: colon
Encoding: 58 58 24
Width: 278
Flags: W
LayerCount: 2
Fore
SplineSet
139 319 m 0
 110 319 86 344 86 375 c 0
 86 406 110 431 139 431 c 0
 168 431 192 406 192 375 c 0
 192 344 168 319 139 319 c 0
139 0 m 0
 110 0 86 25 86 56 c 0
 86 87 110 112 139 112 c 0
 168 112 192 87 192 56 c 0
 192 25 168 0 139 0 c 0
EndSplineSet
EndChar

StartChar: semicolon
Encoding: 59 59 25
Width: 278
Flags: W
LayerCount: 2
Fore
SplineSet
139 318 m 0
 110 318 86 344 86 375 c 0
 86 406 110 431 139 431 c 0
 168 431 192 406 192 375 c 0
 192 344 168 318 139 318 c 0
114 -193 m 0
 107 -193 101 -187 101 -178 c 0
 101 -174 102 -171 108 -163 c 0
 148 -114 166 -58 167 5 c 1
 160 1 152 -1 147 -1 c 0
 146 -2 143 -2 139 -2 c 0
 103 -2 86 26 86 54 c 0
 86 81 104 110 139 110 c 0
 192 110 195 34 195 4 c 0
 195 -110 128 -193 114 -193 c 0
EndSplineSet
EndChar

StartChar: less
Encoding: 60 60 26
Width: 778
Flags: W
LayerCount: 2
Fore
SplineSet
670 -40 m 0
 667 -40 665 -39 651 -33 c 2
 104 225 l 2
 93 230 83 235 83 250 c 0
 83 265 93 270 104 275 c 2
 651 533 l 2
 665 539 667 540 670 540 c 0
 683 540 694 529 694 516 c 0
 694 503 685 497 673 491 c 2
 162 250 l 1
 673 9 l 2
 685 3 694 -3 694 -16 c 0
 694 -29 683 -40 670 -40 c 0
EndSplineSet
EndChar

StartChar: equal
Encoding: 61 61 27
Width: 778
Flags: W
LayerCount: 2
Fore
SplineSet
683 321 m 2
 94 321 l 2
 77 321 56 322 56 344 c 0
 56 366 77 367 93 367 c 2
 684 367 l 2
 700 367 721 366 721 344 c 0
 721 322 700 321 683 321 c 2
684 133 m 2
 93 133 l 2
 77 133 56 134 56 156 c 0
 56 178 77 179 94 179 c 2
 683 179 l 2
 700 179 721 178 721 156 c 0
 721 134 700 133 684 133 c 2
EndSplineSet
EndChar

StartChar: greater
Encoding: 62 62 28
Width: 778
Flags: W
LayerCount: 2
Fore
SplineSet
673 225 m 2
 126 -33 l 2
 112 -39 110 -40 107 -40 c 0
 94 -40 83 -29 83 -16 c 0
 83 -5 90 2 104 9 c 2
 615 250 l 1
 104 491 l 2
 90 498 83 505 83 516 c 0
 83 529 94 540 107 540 c 0
 110 540 112 539 126 533 c 2
 673 275 l 2
 684 270 694 265 694 250 c 0
 694 235 684 230 673 225 c 2
EndSplineSet
EndChar

StartChar: at
Encoding: 64 64 29
Width: 798
Flags: W
LayerCount: 2
Fore
SplineSet
688 -2 m 1
 536 -2 l 1
 494 87 l 2
 478 122 422 229 407 262 c 1
 402 262 l 1
 362 197 176 -116 176 -116 c 2
 155 -152 212 -162 247 -162 c 1
 247 -201 l 1
 111 -201 l 2
 86 -201 73 -170 86 -147 c 0
 87 -147 344 183 362 319 c 0
 370 371 317 395 246 395 c 1
 246 434 l 1
 360 432 l 2
 385 431 393 424 407 398 c 2
 583 76 l 2
 605 36 620 33 630 33 c 0
 660 33 704 150 704 219 c 0
 704 402 557 541 400 541 c 0
 241 541 94 402 94 219 c 0
 94 36 241 -103 400 -103 c 0
 456 -103 503 -89 556 -55 c 0
 566 -49 586 -48 593 -61 c 0
 602 -76 592 -93 580 -100 c 0
 518 -138 464 -153 399 -153 c 0
 209 -153 43 12 43 219 c 0
 43 426 209 591 399 591 c 0
 589 591 755 426 755 219 c 0
 755 139 731 63 688 -2 c 1
EndSplineSet
EndChar

StartChar: A
Encoding: 65 65 30
Width: 710
Flags: W
LayerCount: 2
Fore
SplineSet
681 0 m 1
 662 4 525 3 513 0 c 0
 507 0 493 48 490 55 c 0
 481 83 470 115 461 137 c 1
 321 106 209 81 71 -20 c 1
 53 -20 32 -13 26 13 c 1
 77 97 145 199 201 290 c 0
 257 381 299 461 299 500 c 0
 299 523 292 542 278 563 c 0
 242 615 179 641 119 641 c 1
 119 683 l 1
 180 680 246 680 322 684 c 1
 599 63 l 2
 607 43 619 39 671 39 c 2
 691 39 l 1
 691 0 l 1
 681 0 l 1
341 411 m 1
 326 411 l 1
 313 390 151 133 151 128 c 1
 151 128 151 128 152 128 c 2
 155 129 l 1
 247 166 402 185 445 185 c 1
 419 242 363 364 341 411 c 1
EndSplineSet
EndChar

StartChar: B
Encoding: 66 66 31
Width: 708
Flags: W
LayerCount: 2
Fore
SplineSet
326 -22 m 0
 172 -22 138 33 138 81 c 2
 138 602 l 2
 138 636 137 660 63 660 c 2
 24 660 l 1
 24 702 l 1
 95 699 160 699 227 703 c 1
 227 592 l 1
 286 660 346 693 441 693 c 0
 499 693 595 651 595 562 c 0
 595 490 498 395 422 359 c 1
 528 342 641 270 641 185 c 0
 641 83 552 -22 326 -22 c 0
309 340 m 1
 259 368 l 1
 436 397 491 501 491 562 c 0
 491 611 447 645 394 645 c 0
 351 645 284 598 227 516 c 1
 227 74 l 2
 227 51 248 35 332 35 c 0
 395 35 534 39 534 186 c 0
 534 287 401 340 309 340 c 1
EndSplineSet
EndChar

StartChar: C
Encoding: 67 67 32
Width: 722
Flags: W
LayerCount: 2
Fore
SplineSet
635 494 m 0
 618 494 619 501 616 514 c 0
 586 614 520 666 414 666 c 0
 355 666 166 634 166 341 c 0
 166 49 356 17 415 17 c 0
 521 17 577 64 626 136 c 0
 632 144 636 152 649 145 c 0
 663 137 658 127 654 119 c 0
 607 33 536 -22 403 -22 c 0
 218 -22 56 135 56 342 c 0
 56 546 217 705 403 705 c 0
 498 705 586 700 655 589 c 1
 655 522 l 2
 655 501 655 494 635 494 c 0
EndSplineSet
EndChar

StartChar: D
Encoding: 68 68 33
Width: 666
Flags: W
LayerCount: 2
Fore
SplineSet
332 -15 m 0
 171 -15 45 116 45 275 c 0
 45 345 68 407 107 458 c 1
 188 491 l 1
 188 456 l 1
 162 418 145 363 145 289 c 0
 145 80 258 22 332 22 c 0
 407 22 520 80 520 289 c 0
 520 416 451 493 350 552 c 0
 322 569 296 582 273 595 c 0
 257 603 173 641 64 641 c 1
 64 683 l 1
 124 680 275 684 275 684 c 1
 354 646 434 607 500 547 c 0
 569 484 621 398 621 275 c 0
 621 109 486 -15 332 -15 c 0
EndSplineSet
EndChar

StartChar: E
Encoding: 69 69 34
Width: 722
Flags: W
LayerCount: 2
Fore
SplineSet
635 494 m 0
 618 494 619 501 616 514 c 0
 586 614 520 666 414 666 c 0
 358 666 179 636 167 373 c 1
 384 383 l 2
 477 387 487 402 487 488 c 1
 520 488 l 1
 520 218 l 1
 487 218 l 1
 487 304 477 320 384 324 c 2
 166 334 l 1
 168 49 357 17 415 17 c 0
 521 17 577 64 626 136 c 0
 632 144 636 152 649 145 c 0
 663 137 658 127 654 119 c 0
 607 33 536 -22 403 -22 c 0
 218 -22 56 135 56 342 c 0
 56 546 217 705 403 705 c 0
 498 705 586 700 655 589 c 1
 655 522 l 2
 655 501 655 494 635 494 c 0
EndSplineSet
EndChar

StartChar: F
Encoding: 70 70 35
Width: 653
Flags: W
LayerCount: 2
Fore
SplineSet
578 449 m 1
 562 588 538 641 393 641 c 2
 275 641 l 2
 232 641 230 636 230 606 c 2
 230 257 l 1
 356 267 l 2
 409 272 411 317 411 376 c 1
 444 376 l 1
 444 106 l 1
 411 106 l 1
 411 166 409 213 356 218 c 2
 230 230 l 1
 230 -18 l 2
 230 -51 231 -61 320 -61 c 2
 357 -61 l 1
 357 -100 l 1
 317 -97 227 -97 187 -97 c 0
 148 -97 72 -97 33 -100 c 1
 33 -61 l 1
 61 -61 l 2
 132 -61 135 -52 135 -19 c 2
 135 599 l 2
 135 632 132 641 61 641 c 2
 33 641 l 1
 33 680 l 1
 582 680 l 1
 611 449 l 1
 578 449 l 1
EndSplineSet
EndChar

StartChar: G
Encoding: 71 71 36
Width: 785
Flags: W
LayerCount: 2
Fore
SplineSet
403 -22 m 0
 218 -22 56 135 56 342 c 0
 56 546 217 705 403 705 c 0
 498 705 586 700 655 589 c 1
 655 522 l 2
 655 501 655 494 635 494 c 0
 618 494 620 501 616 514 c 0
 586 614 520 666 414 666 c 0
 356 666 166 634 166 341 c 0
 166 49 356 17 415 17 c 0
 521 17 629 109 629 192 c 0
 629 242 594 325 496 325 c 0
 440 325 404 278 379 227 c 1
 341 258 331 294 327 333 c 1
 363 368 405 385 453 385 c 0
 639 385 674 236 674 192 c 0
 674 72 556 -22 403 -22 c 0
EndSplineSet
EndChar

StartChar: H
Encoding: 72 72 37
Width: 698
Flags: W
LayerCount: 2
Fore
SplineSet
353 -85 m 0
 327 -85 313 -77 313 -69 c 0
 313 -60 328 -55 352 -55 c 0
 451 -55 563 105 563 286 c 0
 563 502 459 532 402 532 c 0
 362 532 234 500 234 372 c 2
 234 61 l 1
 239 46 244 39 317 39 c 2
 339 39 l 1
 339 -1 l 1
 325 -1 l 2
 307 2 65 2 45 -1 c 2
 31 -1 l 1
 31 39 l 1
 53 39 l 2
 117 39 128 42 137 61 c 1
 137 621 l 1
 132 629 128 635 119 638 c 0
 108 642 90 643 53 643 c 2
 31 643 l 1
 31 683 l 1
 45 683 l 2
 63 680 305 680 325 683 c 2
 339 683 l 1
 339 643 l 1
 317 643 l 2
 249 643 242 638 234 622 c 1
 234 484 l 1
 265 526 343 562 410 562 c 0
 545 562 651 444 651 274 c 0
 651 97 551 -85 353 -85 c 0
EndSplineSet
EndChar

StartChar: I
Encoding: 73 73 38
Width: 361
Flags: W
LayerCount: 2
Fore
SplineSet
180 3 m 0
 143 3 66 3 28 0 c 1
 28 39 l 1
 57 39 l 2
 130 39 133 48 133 81 c 2
 133 602 l 2
 133 635 130 644 57 644 c 2
 28 644 l 1
 28 683 l 1
 66 680 143 680 181 680 c 0
 218 680 295 680 333 683 c 1
 333 644 l 1
 304 644 l 2
 231 644 228 635 228 602 c 2
 228 81 l 2
 228 48 231 39 304 39 c 2
 333 39 l 1
 333 0 l 1
 295 3 218 3 180 3 c 0
EndSplineSet
EndChar

StartChar: J
Encoding: 74 74 39
Width: 514
Flags: W
LayerCount: 2
Fore
SplineSet
390 608 m 2
 390 169 l 2
 390 135 390 133 389 125 c 0
 378 48 305 -22 204 -22 c 0
 183 -22 148 -14 148 4 c 0
 148 26 174 14 186 10 c 0
 191 9 197 8 202 8 c 0
 250 8 298 60 298 150 c 2
 298 601 l 2
 298 634 297 644 207 644 c 2
 168 644 l 1
 168 683 l 1
 209 680 294 679 335 680 c 2
 465 683 l 1
 465 644 l 1
 399 644 390 644 390 608 c 2
EndSplineSet
EndChar

StartChar: K
Encoding: 75 75 40
Width: 778
Flags: W
LayerCount: 2
Fore
SplineSet
618 3 m 2
 581 4 512 3 473 0 c 1
 473 39 l 1
 495 39 531 37 531 64 c 0
 531 75 523 87 517 96 c 2
 341 357 l 1
 231 252 l 1
 231 81 l 2
 231 48 233 39 305 39 c 2
 333 39 l 1
 333 0 l 1
 294 3 220 3 182 3 c 0
 145 3 72 3 33 0 c 1
 33 39 l 1
 61 39 l 2
 132 39 135 48 135 81 c 2
 135 602 l 2
 135 635 132 644 61 644 c 2
 33 644 l 1
 33 683 l 1
 72 680 146 680 183 680 c 0
 221 680 294 680 333 683 c 1
 333 644 l 1
 305 644 l 2
 233 644 231 635 231 602 c 2
 231 297 l 1
 534 586 l 2
 542 594 550 602 550 616 c 0
 550 623 546 644 505 645 c 1
 505 683 l 1
 542 680 599 680 634 680 c 0
 661 680 692 680 722 683 c 1
 722 644 l 1
 668 644 619 623 581 586 c 2
 405 418 l 1
 631 84 l 2
 660 42 679 39 736 39 c 1
 736 0 l 1
 618 3 l 2
EndSplineSet
EndChar

StartChar: L
Encoding: 76 76 41
Width: 625
Flags: W
LayerCount: 2
Fore
SplineSet
554 0 m 1
 33 0 l 1
 33 39 l 1
 61 39 l 2
 132 39 135 48 135 81 c 2
 135 602 l 2
 135 635 132 644 61 644 c 2
 33 644 l 1
 33 683 l 1
 72 680 148 680 187 680 c 0
 227 680 317 680 356 683 c 1
 356 644 l 1
 320 644 l 2
 231 644 230 633 230 601 c 2
 230 74 l 2
 230 44 232 39 274 39 c 2
 355 39 l 2
 525 39 539 158 550 263 c 1
 582 263 l 1
 554 0 l 1
EndSplineSet
EndChar

StartChar: M
Encoding: 77 77 42
Width: 1166
Flags: W
LayerCount: 2
Fore
SplineSet
872 0 m 1
 872 36 l 1
 955 106 1001 223 1001 355 c 0
 1001 488 942 645 803 645 c 0
 716 645 630 560 630 474 c 2
 630 81 l 2
 630 48 632 39 704 39 c 2
 732 39 l 1
 732 0 l 1
 691 3 625 3 586 3 c 0
 547 3 480 3 439 0 c 1
 439 39 l 1
 467 39 l 2
 539 39 541 48 541 81 c 2
 541 396 l 2
 541 518 470 647 364 647 c 0
 236 647 169 494 169 364 c 0
 169 242 202 124 296 36 c 1
 296 0 l 1
 176 3 l 1
 56 0 l 1
 56 39 l 1
 96 39 129 45 151 53 c 0
 171 60 183 67 176 74 c 0
 129 126 64 240 64 339 c 0
 64 523 195 692 382 692 c 0
 470 692 539 647 587 579 c 1
 607 578 l 1
 663 646 737 696 837 696 c 0
 990 696 1104 539 1104 379 c 0
 1104 249 1041 123 988 66 c 0
 984 61 984 58 990 55 c 0
 1013 41 1083 38 1108 39 c 1
 1110 0 l 1
 872 0 l 1
EndSplineSet
EndChar

StartChar: N
Encoding: 78 78 43
Width: 750
Flags: W
LayerCount: 2
Fore
SplineSet
614 575 m 2
 614 30 l 2
 614 7 613 0 596 0 c 0
 587 0 585 2 576 15 c 2
 173 608 l 1
 170 611 l 1
 170 108 l 2
 170 82 171 39 272 39 c 1
 272 0 l 1
 152 3 l 1
 33 0 l 1
 33 39 l 1
 134 39 135 82 135 108 c 2
 135 624 l 2
 135 639 134 640 115 642 c 0
 100 644 80 644 66 644 c 2
 33 644 l 1
 33 683 l 1
 205 683 l 2
 225 683 228 682 237 668 c 2
 579 166 l 1
 579 575 l 2
 579 601 578 644 477 644 c 1
 477 683 l 1
 596 680 l 1
 716 683 l 1
 716 644 l 1
 615 644 614 601 614 575 c 2
EndSplineSet
EndChar

StartChar: O
Encoding: 79 79 44
Width: 778
Flags: W
LayerCount: 2
Fore
SplineSet
388 -22 m 0
 210 -22 56 134 56 339 c 0
 56 545 209 705 388 705 c 0
 570 705 721 543 721 339 c 0
 721 137 570 -22 388 -22 c 0
388 672 m 0
 308 672 166 607 166 353 c 0
 166 96 297 12 389 12 c 0
 477 12 611 92 611 353 c 0
 611 604 472 672 388 672 c 0
EndSplineSet
EndChar

StartChar: P
Encoding: 80 80 45
Width: 751
Flags: W
LayerCount: 2
Fore
SplineSet
419 84 m 0
 373 84 330 90 294 126 c 1
 297 165 307 201 346 232 c 1
 371 181 406 134 463 134 c 0
 561 134 608 267 608 381 c 0
 608 499 567 642 433 642 c 0
 304 642 233 450 233 316 c 2
 233 -20 l 2
 233 -53 235 -62 307 -62 c 2
 334 -62 l 1
 334 -101 l 1
 296 -98 222 -98 184 -98 c 0
 147 -98 74 -98 35 -101 c 1
 35 -62 l 1
 63 -62 l 2
 134 -62 137 -53 137 -20 c 2
 137 602 l 2
 137 635 134 644 63 644 c 2
 35 644 l 1
 35 683 l 1
 170 683 l 2
 222 683 230 656 230 609 c 2
 230 537 l 1
 237 537 l 1
 268 602 345 693 452 693 c 0
 603 693 712 555 712 404 c 0
 712 233 578 84 419 84 c 0
EndSplineSet
EndChar

StartChar: Q
Encoding: 81 81 46
Width: 778
Flags: W
HStem: -168 60<819.366 950.085> -22 34<321.352 461.103> 672 33<314.665 460.445>
VStem: 56 110<214.841 467.12> 611 110<213.352 466.189>
LayerCount: 2
Fore
SplineSet
388 672 m 0
 308 672 166 607 166 353 c 0
 166 96 297 12 389 12 c 0
 477 12 611 92 611 353 c 0
 611 604 472 672 388 672 c 0
388 -22 m 0
 210 -22 56 134 56 339 c 0
 56 545 209 705 388 705 c 0
 570 705 721 543 721 339 c 0
 721 213.263789728 662.494736286 104.188018792 574.424855971 39.7486459594 c 5
 667.407829594 -15.2828321223 801.20239417 -107.999999936 934 -108 c 4
 954 -108 966 -106 986 -105 c 5
 986 -126 l 5
 960 -147 905 -168 850 -168 c 4
 720.341854182 -168 575.00981078 -64.1604285085 500.296864241 -0.949332408776 c 5
 465.112565147 -14.5944438974 427.278207854 -22 388 -22 c 0
EndSplineSet
EndChar

StartChar: R
Encoding: 82 82 47
Width: 723
Flags: W
LayerCount: 2
Fore
SplineSet
684 0 m 0
 669 0 649 -2 627 -1 c 0
 605 1 580 6 557 20 c 0
 513 48 467 101 445 164 c 0
 435 193 431 217 423 239 c 0
 416 259 407 277 389 295 c 0
 355 327 313 327 293 327 c 1
 293 360 l 1
 394 360 465 433 465 515 c 0
 465 592 429 642 374 642 c 0
 274 642 233 519 233 455 c 2
 233 80 l 2
 233 47 235 38 307 38 c 2
 334 38 l 1
 334 -1 l 1
 296 2 222 2 184 2 c 0
 147 2 74 2 35 -1 c 1
 35 38 l 1
 63 38 l 2
 134 38 137 47 137 80 c 2
 137 602 l 2
 137 636 134 645 63 645 c 2
 35 645 l 1
 35 683 l 1
 170 683 l 2
 222 683 230 656 230 609 c 2
 230 576 l 1
 233 576 l 1
 264 644 316 693 384 693 c 0
 464 693 569 630 569 508 c 0
 569 360 468 339 416 336 c 1
 485 309 526 270 549 200 c 0
 552 190 556 179 559 167 c 0
 566 145 572 123 579 110 c 0
 595 79 638 29 684 29 c 0
 697 29 705 24 705 14 c 0
 705 5 700 0 684 0 c 0
EndSplineSet
EndChar

StartChar: S
Encoding: 83 83 48
Width: 556
Flags: W
LayerCount: 2
Fore
SplineSet
302 -22 m 0
 216 -22 154 11 121 45 c 1
 91 -4 89 -8 89 -8 c 2
 84 -15 81 -22 71 -22 c 0
 58 -22 56 -15 56 6 c 2
 56 204 l 2
 56 225 57 232 73 232 c 0
 81 232 88 229 88 219 c 0
 89 195 91 172 98 150 c 0
 125 58 210 17 301 17 c 0
 380 17 428 85 428 154 c 0
 428 186 418 217 399 243 c 0
 372 278 344 285 317 292 c 0
 248 309 198 321 187 324 c 0
 109 352 56 425 56 509 c 0
 56 616 140 705 251 705 c 0
 304 705 347 691 386 658 c 0
 394 651 401 644 408 638 c 1
 440 690 l 2
 448 704 450 705 458 705 c 0
 471 705 472 698 472 677 c 2
 472 478 l 2
 472 456 471 451 456 451 c 0
 444 451 441 456 440 466 c 0
 434 507 425 548 404 585 c 0
 378 630 333 669 252 669 c 0
 178 669 127 611 127 544 c 0
 127 488 164 436 223 422 c 2
 349 391 l 2
 433 371 499 288 499 188 c 0
 499 77 419 -22 302 -22 c 0
EndSplineSet
EndChar

StartChar: T
Encoding: 84 84 49
Width: 722
Flags: W
LayerCount: 2
Fore
SplineSet
673 598 m 1
 635 612 625 615 581 615 c 0
 386 615 226 437 226 262 c 0
 226 148 297 19 408 19 c 0
 484 19 562 51 622 165 c 1
 657 141 670 127 678 87 c 1
 571 -8 452 -12 402 -12 c 0
 235 -12 119 83 119 236 c 0
 119 376 181 466 286 545 c 0
 315 567 346 587 376 607 c 1
 376 615 l 1
 218 615 l 2
 91 615 82 609 68 447 c 1
 36 447 l 1
 55 678 l 1
 574 678 l 2
 577 678 584 677 593 676 c 0
 637 674 664 691 675 738 c 1
 708 731 l 1
 673 598 l 1
EndSplineSet
EndChar

StartChar: U
Encoding: 85 85 50
Width: 803
Flags: W
LayerCount: 2
Fore
SplineSet
577 3 m 1
 577 89 l 1
 537 23 469 -22 388 -22 c 0
 251 -22 135 87 135 229 c 2
 135 602 l 2
 135 635 132 644 61 644 c 2
 33 644 l 1
 33 683 l 1
 72 680 146 680 183 680 c 0
 221 680 294 680 333 683 c 1
 333 644 l 1
 305 644 l 2
 233 644 231 635 231 602 c 2
 231 225 l 2
 231 40 345 17 390 17 c 0
 482 17 576 94 576 232 c 2
 576 605 l 2
 576 630 575 644 474 644 c 1
 474 683 l 1
 474 683 566 680 619 680 c 0
 666 680 764 683 764 683 c 1
 764 644 l 1
 663 644 662 632 662 601 c 2
 662 111 l 2
 662 61 663 38 764 38 c 1
 764 0 l 1
 577 3 l 1
EndSplineSet
EndChar

StartChar: V
Encoding: 86 86 51
Width: 750
Flags: W
LayerCount: 2
Fore
SplineSet
622 581 m 2
 401 -1 l 2
 396 -16 393 -22 374 -22 c 0
 359 -22 353 -17 346 2 c 2
 116 609 l 2
 103 644 88 644 19 644 c 1
 19 683 l 1
 149 680 l 2
 186 679 254 680 294 683 c 1
 294 644 l 1
 267 644 213 647 213 620 c 0
 213 619 214 615 218 603 c 2
 404 114 l 1
 581 581 l 2
 583 587 586 592 586 599 c 0
 586 619 567 643 513 645 c 1
 513 683 l 1
 630 680 l 2
 656 679 695 681 730 683 c 1
 730 644 l 1
 660 643 635 616 622 581 c 2
EndSplineSet
EndChar

StartChar: W
Encoding: 87 87 52
Width: 1173
Flags: W
LayerCount: 2
Fore
SplineSet
981 -14 m 1
 981 79 l 1
 944 23 841 -14 774 -14 c 0
 729 -14 642 -8 572 81 c 1
 500 15 422 -14 339 -14 c 0
 210 -14 114 40 114 178 c 2
 114 597 l 2
 114 623 93 639 38 639 c 1
 38 678 l 1
 38 678 113 675 158 675 c 0
 204 675 279 678 279 678 c 1
 279 639 l 1
 209 639 202 637 202 597 c 2
 202 125 l 2
 202 63 284 20 346 20 c 0
 443 20 560 90 560 190 c 2
 560 597 l 2
 560 637 553 639 483 639 c 1
 483 678 l 1
 483 678 557 675 603 675 c 0
 648 675 724 678 724 678 c 1
 724 639 l 1
 653 639 647 637 647 597 c 2
 647 121 l 2
 647 68 709 21 771 21 c 0
 834 21 975 81 975 180 c 2
 975 597 l 2
 975 637 968 639 898 639 c 1
 898 678 l 1
 898 678 972 675 1018 675 c 0
 1063 675 1139 678 1139 678 c 1
 1139 639 l 1
 1068 639 1062 637 1062 597 c 2
 1062 87 l 2
 1062 42 1066 35 1139 35 c 1
 1139 -3 l 1
 981 -14 l 1
EndSplineSet
EndChar

StartChar: X
Encoding: 88 88 53
Width: 750
Flags: W
LayerCount: 2
Fore
SplineSet
593 3 m 2
 556 4 484 3 445 0 c 1
 445 38 l 1
 492 40 509 56 509 64 c 0
 509 66 506 72 505 73 c 2
 352 304 l 1
 215 102 l 2
 208 91 206 88 206 80 c 0
 206 65 221 39 268 38 c 1
 268 0 l 1
 187 6 105 2 24 0 c 1
 24 39 l 1
 78 39 129 49 162 94 c 0
 164 97 166 100 168 102 c 2
 329 339 l 1
 148 612 l 2
 131 638 114 644 60 644 c 2
 37 644 l 1
 37 683 l 1
 169 680 l 2
 207 679 279 680 318 683 c 1
 318 645 l 1
 271 643 253 627 253 619 c 0
 253 615 258 609 260 606 c 2
 384 420 l 1
 398 441 462 533 498 589 c 0
 501 594 502 597 502 603 c 0
 502 623 482 643 440 645 c 1
 440 683 l 1
 523 677 602 681 684 683 c 1
 684 644 l 1
 594 643 561 613 540 582 c 2
 406 385 l 1
 614 72 l 2
 633 43 652 39 703 39 c 2
 726 39 l 1
 726 0 l 1
 593 3 l 2
EndSplineSet
EndChar

StartChar: Y
Encoding: 89 89 54
Width: 750
Flags: W
LayerCount: 2
Fore
SplineSet
611 582 m 2
 420 273 l 1
 420 83 l 2
 420 47 424 39 496 39 c 2
 522 39 l 1
 522 0 l 1
 483 3 412 3 374 3 c 0
 336 3 265 3 226 0 c 1
 226 39 l 1
 253 39 l 2
 325 39 328 48 328 81 c 2
 328 273 l 1
 120 610 l 2
 105 634 99 644 33 644 c 2
 11 644 l 1
 11 683 l 1
 144 680 l 2
 182 679 254 680 294 683 c 1
 294 644 l 1
 243 644 225 640 225 624 c 0
 225 620 225 619 231 609 c 2
 407 323 l 1
 566 582 l 2
 570 588 576 600 576 610 c 0
 576 627 563 644 519 644 c 1
 519 683 l 1
 637 680 l 2
 664 679 703 681 738 683 c 1
 738 644 l 1
 703 644 647 640 611 582 c 2
EndSplineSet
EndChar

StartChar: Z
Encoding: 90 90 55
Width: 611
Flags: W
LayerCount: 2
Fore
SplineSet
543 0 m 1
 86 0 l 2
 61 0 56 1 56 21 c 0
 56 30 56 31 64 43 c 2
 443 644 l 1
 295 644 l 2
 137 644 108 567 101 453 c 1
 69 453 l 1
 80 683 l 1
 525 683 l 2
 548 683 554 682 554 663 c 0
 554 655 554 654 547 642 c 2
 168 42 l 1
 323 42 l 2
 502 42 520 131 528 272 c 1
 560 272 l 1
 543 0 l 1
EndSplineSet
EndChar

StartChar: a
Encoding: 97 97 56
Width: 526
Flags: W
LayerCount: 2
Fore
SplineSet
365 0 m 1
 325 86 l 1
 320 86 l 1
 219 64 138 50 53 -13 c 1
 41 -13 26 -8 22 10 c 1
 88 118 174 183 192 319 c 0
 199 370 147 394 76 394 c 1
 76 432 l 1
 189 430 l 2
 215 430 223 423 237 397 c 2
 412 77 l 2
 433 39 475 38 512 38 c 1
 512 0 l 1
 365 0 l 1
138 97 m 1
 195 120 275 127 303 128 c 1
 286 164 250 233 237 262 c 1
 232 262 l 1
 192 199 144 110 138 97 c 1
EndSplineSet
EndChar

StartChar: b
Encoding: 98 98 57
Width: 453
Flags: W
HStem: -14 39<148.444 302.184> 216 20<197 202.037> 410 34<7 68.8989 204.225 297.3>
VStem: 71 76<30.0827 364.49 382 408.505> 312 85<301.098 398.839> 340 83<57.8319 170.479>
LayerCount: 2
Fore
SplineSet
209 -14 m 0xf4
 111 -14 71 20 71 53 c 2
 71 374 l 2
 71 395 70 411 25 411 c 2
 7 411 l 1
 7 449 l 1
 54 447 103 448 147 450 c 1
 147 382 l 1
 184 423 222 444 282 444 c 0
 318 444 397 417 397 359 c 0xf8
 397 314 357 257 281 230 c 1
 355 221 423 172 423 119 c 0
 423 52 353 -14 209 -14 c 0xf4
197 216 m 1
 162 236 l 1
 279 255 312 320 312 359 c 0xf8
 312 389 285 410 252 410 c 0
 225 410 183 390 147 339 c 1
 147 48 l 2
 147 36 159 25 212 25 c 0
 253 25 340 28 340 120 c 0xf4
 340 183 256 216 197 216 c 1
EndSplineSet
EndChar

StartChar: c
Encoding: 99 99 58
Width: 457
Flags: W
LayerCount: 2
Fore
SplineSet
258 -14 m 0
 140 -14 36 87 36 219 c 0
 36 350 139 451 258 451 c 0
 318 451 374 448 419 376 c 1
 419 333 l 2
 419 317 418 311 405 311 c 0
 394 311 391 319 388 328 c 0
 369 391 325 420 258 420 c 0
 232 420 123 403 123 218 c 0
 123 33 238 18 265 18 c 0
 332 18 362 43 394 89 c 0
 404 102 422 95 422 86 c 0
 422 82 420 79 419 77 c 0
 390 21 343 -14 258 -14 c 0
EndSplineSet
EndChar

StartChar: d
Encoding: 100 100 59
Width: 488
Flags: W
LayerCount: 2
Fore
SplineSet
213 -10 m 0
 110 -10 29 75 29 177 c 0
 29 221 44 261 69 294 c 1
 134 321 l 1
 134 293 l 1
 122 263 115 221 115 186 c 0
 115 71 168 17 213 17 c 0
 259 17 331 53 331 186 c 0
 331 304 224 354 174 373 c 0
 165 377 112 398 41 398 c 1
 41 437 l 1
 81 436 176 438 176 438 c 1
 263 404 407 334 407 177 c 0
 407 70 312 -10 213 -10 c 0
EndSplineSet
EndChar

StartChar: e
Encoding: 101 101 60
Width: 457
Flags: W
HStem: -14 32<207.63 337.782> 420 31<203.872 328.405>
VStem: 36 87.0366<122.014 212.317 240.567 315.71> 300 34<138 196.756 255.209 313> 388 31<311.092 362.224>
LayerCount: 2
Fore
SplineSet
300 138 m 1
 300 193 300 199 245 203 c 2
 123.036648621 212.316644897 l 1
 125.368376852 32.6914576767 238.279130944 18 265 18 c 0
 332 18 362 43 394 89 c 0
 404 102 422 95 422 86 c 0
 422 82 420 79 419 77 c 0
 390 21 343 -14 258 -14 c 0
 140 -14 36 87 36 219 c 0
 36 350 139 451 258 451 c 0
 318 451 374 448 419 376 c 1
 419 333 l 2
 419 317 418 311 405 311 c 0
 394 311 391 319 388 328 c 0
 369 391 325 420 258 420 c 0
 233.098847837 420 132.065162447 404.40658958 123.569590973 240.567332706 c 1
 245 249 l 2
 300 253 300 259 300 313 c 1
 334 313 l 1
 334 138 l 1
 300 138 l 1
EndSplineSet
EndChar

StartChar: f
Encoding: 102 102 61
Width: 444
Flags: W
LayerCount: 2
Fore
SplineSet
386 279 m 1
 378 387 365 400 263 400 c 2
 215 400 l 2
 179 400 178 394 178 347 c 2
 178 229 l 1
 245 235 l 2
 300 239 300 243 300 299 c 1
 334 299 l 1
 334 124 l 1
 300 124 l 1
 300 180 300 184 245 189 c 2
 178 194 l 1
 178 -26 l 2
 178 -63 187 -69 259 -69 c 2
 273 -69 l 1
 273 -100 l 1
 226 -98 184 -97 141 -97 c 0
 130 -97 96 -97 25 -100 c 1
 25 -69 l 1
 37 -69 l 2
 94 -69 101 -63 101 -28 c 2
 101 359 l 2
 101 394 93 400 36 400 c 2
 25 400 l 1
 25 430 l 1
 407 430 l 1
 418 279 l 1
 386 279 l 1
EndSplineSet
EndChar

StartChar: g
Encoding: 103 103 62
Width: 457
Flags: W
LayerCount: 2
Fore
SplineSet
259 -14 m 0
 140 -14 36 87 36 219 c 0
 36 350 139 451 259 451 c 0
 319 451 374 448 419 376 c 1
 419 333 l 2
 419 317 418 311 406 311 c 0
 394 311 391 319 388 328 c 0
 369 391 326 420 259 420 c 0
 232 420 123 403 123 218 c 0
 123 33 238 18 265 18 c 0
 336 18 402 75 402 129 c 0
 402 162 383 216 320 216 c 0
 284 216 260 185 243 150 c 1
 216 172 209 195 206 222 c 1
 231 247 260 257 291 257 c 0
 415 257 439 158 439 129 c 0
 439 49 360 -14 259 -14 c 0
EndSplineSet
EndChar

StartChar: h
Encoding: 104 104 63
Width: 558
Flags: W
LayerCount: 2
Fore
SplineSet
434 -98 m 0
 415 -117 363 -155 303 -155 c 0
 277 -155 263 -147 263 -139 c 0
 263 -130 278 -125 302 -125 c 0
 400 -125 447 24 447 136 c 0
 447 303 369 351 312 351 c 0
 274 351 185 321 185 192 c 2
 185 95 l 2
 185 79 184 67 186 58 c 0
 187 49 189 43 192 39 c 0
 200 31 215 29 252 29 c 2
 261 29 l 1
 261 -2 l 1
 220 0 183 1 145 1 c 0
 124 1 91 1 34 -2 c 1
 34 29 l 1
 46 29 l 2
 103 29 111 35 111 70 c 2
 111 388 l 2
 111 423 102 429 45 429 c 2
 34 429 l 1
 34 459 l 1
 75 457 113 457 151 457 c 0
 172 457 204 456 261 459 c 1
 261 429 l 1
 252 429 l 2
 194 429 186 424 185 385 c 2
 182 301 l 1
 207 343 252 382 320 382 c 0
 455 382 524 256 524 136 c 0
 524 -1 452 -79 434 -98 c 0
EndSplineSet
EndChar

StartChar: i
Encoding: 105 105 64
Width: 286
Flags: W
LayerCount: 2
Fore
SplineSet
143 3 m 0
 101 3 69 1 33 0 c 1
 33 30 l 1
 45 30 l 2
 101 30 108 37 108 72 c 2
 108 361 l 2
 108 398 98 403 42 403 c 2
 33 403 l 1
 33 432 l 1
 72 430 106 430 142 430 c 0
 180 430 217 430 259 432 c 1
 259 403 l 1
 248 403 l 2
 185 403 184 394 184 343 c 2
 184 91 l 2
 184 40 185 30 248 30 c 2
 259 30 l 1
 259 0 l 1
 217 2 181 3 143 3 c 0
EndSplineSet
EndChar

StartChar: j
Encoding: 106 106 65
Width: 300
Flags: W
LayerCount: 2
Fore
SplineSet
252 402 m 2
 188 402 187 392 187 340 c 2
 187 90 l 2
 187 56 187 54 186 46 c 0
 177 -29 118 -101 17 -101 c 0
 -4 -101 -39 -93 -39 -75 c 0
 -39 -53 -13 -65 -1 -69 c 0
 4 -70 10 -71 15 -71 c 0
 63 -71 111 -19 111 70 c 2
 111 361 l 2
 111 398 100 402 44 402 c 2
 35 402 l 1
 35 432 l 1
 74 430 109 430 145 430 c 0
 183 430 221 430 263 432 c 1
 263 402 l 1
 252 402 l 2
EndSplineSet
EndChar

StartChar: k
Encoding: 107 107 66
Width: 550
Flags: W
LayerCount: 2
Fore
SplineSet
519 -12 m 0
 503 -17 454 -17 417 6 c 0
 382 28 335 81 318 131 c 0
 310 155 306 174 300 192 c 0
 292 218 279 235 256 249 c 1
 175 179 l 1
 175 79 l 2
 175 39 181 38 251 38 c 1
 251 0 l 1
 139 3 l 1
 28 0 l 1
 28 38 l 1
 98 38 105 39 105 79 c 2
 105 593 l 2
 105 638 100 645 28 645 c 1
 28 683 l 1
 178 694 l 1
 178 224 l 1
 310 339 l 2
 321 349 330 359 330 375 c 0
 330 385 323 394 302 396 c 1
 302 434 l 1
 320 433 381 431 416 431 c 0
 443 431 456 431 489 434 c 1
 489 396 l 1
 465 394 424 392 363 343 c 0
 355 336 294 286 284 274 c 1
 326 259 366 240 394 183 c 0
 405 160 424 100 435 79 c 0
 448 54 482 15 518 15 c 0
 529 15 536 11 536 2 c 0
 536 -6 531 -9 519 -12 c 0
EndSplineSet
EndChar

StartChar: l
Encoding: 108 108 67
Width: 490
Flags: W
LayerCount: 2
Fore
SplineSet
443 0 m 1
 32 0 l 1
 32 34 l 1
 44 34 l 2
 91 34 103 38 103 71 c 2
 103 610 l 2
 103 643 91 648 44 648 c 2
 32 648 l 1
 32 682 l 1
 71 680 108 679 144 679 c 0
 185 679 225 680 271 682 c 1
 271 648 l 1
 256 648 l 2
 185 648 182 637 182 601 c 2
 182 70 l 2
 182 35 184 34 231 34 c 2
 264 34 l 2
 331 34 370 45 397 81 c 0
 423 114 426 160 430 201 c 1
 463 201 l 1
 443 0 l 1
EndSplineSet
EndChar

StartChar: m
Encoding: 109 109 68
Width: 786
Flags: W
LayerCount: 2
Fore
SplineSet
553 0 m 1
 553 25 l 1
 606 69 634 142 634 224 c 0
 634 308 617 404 531 404 c 0
 478 404 434 352 434 298 c 2
 434 56 l 2
 434 38 442 31 492 31 c 2
 511 31 l 1
 511 0 l 1
 484 2 420 2 395 2 c 0
 370 2 307 2 280 0 c 1
 280 31 l 1
 300 31 l 2
 349 31 355 38 355 56 c 2
 355 249 l 2
 355 325 321 405 256 405 c 0
 178 405 155 311 155 229 c 0
 155 153 175 80 235 25 c 1
 235 0 l 1
 138 2 l 1
 61 0 l 1
 61 27 l 1
 87 27 108 31 122 37 c 0
 133 41 141 43 137 47 c 0
 107 79 66 152 66 214 c 0
 66 330 148 436 267 436 c 0
 322 436 367 407 397 365 c 1
 408 365 l 1
 443 407 490 438 553 438 c 0
 650 438 722 340 722 239 c 0
 722 157 681 78 648 42 c 0
 646 40 646 39 649 37 c 0
 663 28 708 27 724 28 c 1
 725 0 l 1
 553 0 l 1
EndSplineSet
EndChar

StartChar: n
Encoding: 110 110 69
Width: 552
Flags: W
LayerCount: 2
Fore
SplineSet
449 325 m 2
 449 38 l 2
 449 15 441 0 427 0 c 0
 412 0 393 22 371 51 c 2
 135 357 l 1
 135 105 l 2
 135 51 164 39 212 38 c 1
 212 0 l 1
 177 2 146 3 116 3 c 0
 86 3 57 2 23 0 c 1
 23 38 l 1
 87 40 100 66 100 106 c 2
 100 389 l 1
 78 394 54 394 30 394 c 2
 23 394 l 1
 23 432 l 1
 140 432 l 2
 165 432 176 423 195 397 c 2
 414 112 l 1
 414 321 l 2
 414 357 410 392 337 394 c 1
 337 432 l 1
 372 430 403 429 433 429 c 0
 463 429 492 430 526 432 c 1
 526 394 l 1
 453 392 449 356 449 325 c 2
EndSplineSet
EndChar

StartChar: o
Encoding: 111 111 70
Width: 500
Flags: W
LayerCount: 2
Fore
SplineSet
249 -11 m 0
 132 -11 28 85 28 214 c 0
 28 339 125 448 250 448 c 0
 371 448 471 342 471 214 c 0
 471 87 370 -11 249 -11 c 0
357 357 m 0
 332 398 291 419 249 419 c 0
 211 419 165 399 140 355 c 0
 118 315 117 267 117 222 c 0
 117 177 119 125 141 85 c 0
 167 41 209 21 250 21 c 0
 298 21 339 49 360 92 c 0
 381 134 382 186 382 222 c 0
 382 260 382 315 357 357 c 0
EndSplineSet
EndChar

StartChar: p
Encoding: 112 112 71
Width: 556
Flags: W
LayerCount: 2
Fore
SplineSet
181 44 m 1
 181 -115 l 2
 181 -155 187 -155 257 -155 c 1
 257 -194 l 1
 142 -191 l 1
 28 -194 l 1
 28 -155 l 1
 98 -155 105 -155 105 -115 c 2
 105 347 l 2
 105 387 101 393 28 393 c 1
 28 431 l 1
 178 442 l 1
 178 383 l 1
 200 406 241 442 311 442 c 0
 424 442 521 342 521 215 c 0
 521 85 417 -13 298 -13 c 0
 236 -13 197 22 181 44 c 1
304 409 m 0
 255 409 208 382 181 333 c 1
 181 114 l 2
 181 95 181 95 194 75 c 0
 220 35 256 16 294 16 c 0
 363 16 431 96 431 215 c 0
 431 326 372 409 304 409 c 0
EndSplineSet
EndChar

StartChar: q
Encoding: 113 113 72
Width: 500
Flags: W
LayerCount: 2
Fore
SplineSet
394 -122 m 0
 329 -122 317 -53 307 -5 c 0
 305 -5 303 -6 301 -6 c 0
 284 -10 267 -13 249 -13 c 0
 132 -13 28 84 28 213 c 0
 28 338 125 448 250 448 c 0
 371 448 471 341 471 213 c 0
 471 120 418 44 343 8 c 1
 354 -15 370 -41 399 -41 c 0
 424 -41 448 -27 453 -3 c 0
 454 6 456 15 468 15 c 0
 472 15 479 9 479 -4 c 0
 479 -37 462 -122 394 -122 c 0
357 356 m 0
 332 397 291 418 249 418 c 0
 211 418 166 399 140 354 c 0
 118 314 117 266 117 221 c 0
 117 151 122 73 191 35 c 1
 190 39 189 44 189 50 c 0
 189 74 210 107 250 107 c 0
 288 107 310 77 325 47 c 1
 378 88 382 160 382 221 c 0
 382 259 382 315 357 356 c 0
250 79 m 0
 230 79 216 65 216 49 c 0
 216 39 224 20 250 20 c 0
 260 20 276 22 298 30 c 1
 290 55 279 79 250 79 c 0
EndSplineSet
EndChar

StartChar: r
Encoding: 114 114 73
Width: 477
Flags: W
LayerCount: 2
Fore
SplineSet
448 2 m 0
 438 2 425 0 411 1 c 0
 397 2 381 5 366 14 c 0
 338 32 305 66 291 107 c 0
 285 125 282 141 278 154 c 0
 273 168 267 179 256 190 c 0
 235 209 208 209 195 209 c 1
 195 232 l 1
 303 250 303 300 303 339 c 0
 303 371 274 410 243 410 c 0
 209 410 173 372 148 333 c 1
 148 79 l 2
 148 37 150 38 215 38 c 1
 215 0 l 1
 112 3 l 1
 12 0 l 1
 12 38 l 1
 68 38 71 38 71 79 c 2
 71 374 l 2
 71 395 70 411 25 411 c 2
 8 411 l 1
 7 449 l 1
 54 447 103 448 148 450 c 1
 148 382 l 1
 184 423 225 444 272 444 c 0
 309 444 387 414 387 339 c 0
 387 293 354 242 274 218 c 1
 321 203 349 188 366 136 c 0
 368 130 370 123 372 115 c 0
 377 101 381 87 385 79 c 0
 395 60 419 28 448 28 c 0
 457 28 463 22 463 15 c 0
 463 9 460 2 448 2 c 0
EndSplineSet
EndChar

StartChar: s
Encoding: 115 115 74
Width: 394
Flags: W
LayerCount: 2
Fore
SplineSet
199 -11 m 0
 179 -11 135 -10 92 30 c 1
 86 24 81 18 77 12 c 0
 72 5 57 -11 48 -11 c 0
 35 -11 33 -4 33 17 c 2
 33 146 l 2
 33 167 34 175 50 175 c 0
 62 175 64 171 67 155 c 0
 86 72 120 18 199 18 c 0
 273 18 305 56 305 104 c 0
 305 171 229 186 207 191 c 0
 137 204 109 210 76 237 c 0
 49 259 33 287 33 323 c 0
 33 381 72 448 193 448 c 0
 208 448 247 448 285 421 c 1
 289 425 296 432 299 435 c 0
 312 447 314 448 321 448 c 0
 334 448 336 441 336 420 c 2
 336 321 l 2
 336 299 334 294 319 294 c 0
 311 294 304 297 303 306 c 0
 302 330 298 354 286 375 c 0
 272 400 245 421 193 421 c 0
 111 421 88 382 88 351 c 0
 88 298 148 285 205 274 c 0
 245 266 285 258 318 226 c 0
 330 214 360 183 360 130 c 0
 360 57 313 -11 199 -11 c 0
EndSplineSet
EndChar

StartChar: t
Encoding: 116 116 75
Width: 484
Flags: W
LayerCount: 2
Fore
SplineSet
430 370 m 1
 405 380 399 381 371 381 c 0
 248 381 165 279 165 168 c 0
 165 68 230 24 280 24 c 0
 318 24 351 45 390 119 c 1
 414 103 429 82 434 56 c 1
 365 -5 289 -8 257 -8 c 0
 150 -8 76 53 76 151 c 0
 76 236 103 291 168 341 c 0
 185 354 203 366 222 378 c 1
 222 381 l 1
 150 381 l 2
 129 381 113 382 101 381 c 0
 89 379 81 377 76 372 c 0
 64 361 60 339 55 284 c 1
 23 284 l 1
 35 434 l 1
 367 434 l 2
 375 434 410 436 421 471 c 1
 453 467 l 1
 430 370 l 1
EndSplineSet
EndChar

StartChar: u
Encoding: 117 117 76
Width: 556
Flags: W
LayerCount: 2
Fore
SplineSet
386 0 m 1
 386 95 l 1
 354 39 296 -11 243 -11 c 0
 90 -11 58 97 58 181 c 0
 58 249 82 313 112 373 c 0
 113 375 122 392 122 394 c 0
 122 401 106 403 58 403 c 1
 58 441 l 1
 213 442 l 1
 213 442 139 309 139 183 c 0
 139 102 169 18 248 18 c 0
 316 18 383 141 383 196 c 2
 383 352 l 2
 383 397 378 403 306 403 c 1
 306 441 l 1
 458 442 l 1
 458 89 l 2
 458 44 463 38 535 38 c 1
 535 0 l 1
 386 0 l 1
EndSplineSet
EndChar

StartChar: v
Encoding: 118 118 77
Width: 564
Flags: W
LayerCount: 2
Fore
SplineSet
290 -11 m 0
 137 -11 109 81 109 159 c 2
 109 316 l 2
 109 400 109 403 32 403 c 1
 32 442 l 1
 185 442 l 1
 185 112 l 2
 185 63 210 18 290 18 c 0
 376 18 434 111 434 273 c 0
 434 392 392 413 299 415 c 1
 299 442 l 1
 363 443 l 2
 463 445 522 355 522 273 c 0
 522 143 456 -11 290 -11 c 0
EndSplineSet
EndChar

StartChar: w
Encoding: 119 119 78
Width: 786
Flags: W
HStem: 0 34<207.017 303.69 481.212 583.622> 407 31<61 137.179 280 353.947 478 555.391>
VStem: 66 89<125.166 312.718> 355 78<91.0387 404.111> 634 88<109.679 320.268>
LayerCount: 2
Fore
SplineSet
553 0 m 0
 490 0 443 31 408 73 c 1
 397 73 l 1
 367 31 322 2 267 2 c 0
 148 2 66 108 66 224 c 0
 66 286 107 359 137 391 c 0
 141 395 133 397 122 402 c 0
 108 407 87 411 61 411 c 1
 61 438 l 1
 138 436 l 1
 235 438 l 1
 235 413 l 1
 175 358 155 285 155 209 c 0
 155 127 178 33 256 33 c 0
 321 33 355 113 355 189 c 2
 355 382 l 2
 355 400 349 407 300 407 c 2
 280 407 l 1
 280 438 l 1
 307 436 395 436 395 436 c 2
 424 435 432 414 433 390 c 2
 433 140 l 2
 434 86 478 34 531 34 c 0
 617 34 634 130 634 214 c 0
 634 354 571 409 478 411 c 1
 478 439 l 5
 562 439 l 6
 643.997449341 439 722 330 722 219 c 4
 722 98 650 0 553 0 c 0
EndSplineSet
EndChar

StartChar: x
Encoding: 120 120 79
Width: 528
Flags: W
LayerCount: 2
Fore
SplineSet
292 235 m 1
 422 68 l 2
 444 39 458 30 505 30 c 2
 516 30 l 1
 516 0 l 1
 480 2 449 3 417 3 c 0
 381 3 346 2 306 0 c 1
 306 30 l 1
 333 33 342 43 342 55 c 0
 342 63 332 77 314 100 c 0
 297 122 274 149 250 182 c 1
 214 137 192 112 180 95 c 0
 168 78 166 70 166 60 c 0
 166 39 180 34 196 29 c 1
 196 0 l 1
 160 2 129 3 98 3 c 0
 70 3 44 2 12 0 c 1
 12 30 l 1
 64 33 95 51 125 82 c 0
 140 97 155 116 172 138 c 0
 188 159 207 183 229 209 c 1
 110 363 l 2
 88 392 74 401 27 401 c 2
 17 401 l 1
 17 430 l 1
 49 429 76 428 112 428 c 0
 149 428 185 428 226 430 c 1
 226 401 l 1
 200 398 190 386 190 376 c 0
 190 374 190 373 191 371 c 0
 192 368 194 365 199 358 c 0
 209 344 229 317 272 262 c 1
 296 294 315 315 327 331 c 0
 339 347 345 358 345 371 c 0
 345 386 337 394 325 399 c 0
 321 400 319 400 314 402 c 1
 314 430 l 1
 350 428 382 428 414 428 c 0
 441 428 468 428 498 430 c 1
 498 401 l 1
 420 398 387 354 344 299 c 0
 329 279 312 258 292 235 c 1
EndSplineSet
EndChar

StartChar: y
Encoding: 121 121 80
Width: 528
Flags: W
LayerCount: 2
Fore
SplineSet
450 367 m 0
 435 347 425 319 416 296 c 2
 307 16 l 2
 301 1 300 -2 300 -14 c 2
 300 -114 l 2
 300 -149 302 -156 366 -156 c 2
 377 -156 l 1
 377 -195 l 1
 336 -193 297 -192 260 -192 c 0
 238 -192 207 -192 150 -195 c 1
 150 -156 l 1
 158 -156 l 2
 223 -156 227 -150 227 -114 c 2
 227 -14 l 2
 227 -2 226 1 220 16 c 2
 87 357 l 2
 71 400 57 400 8 400 c 1
 8 430 l 1
 44 428 75 428 106 428 c 0
 143 428 178 428 219 430 c 1
 219 400 l 1
 201 400 163 401 163 375 c 0
 163 371 164 367 164 363 c 0
 169 349 265 105 285 53 c 1
 290 64 294 74 298 84 c 2
 388 317 l 2
 393 330 400 344 400 358 c 0
 400 383 383 398 353 401 c 1
 353 430 l 1
 385 428 414 428 442 428 c 0
 467 428 491 428 519 430 c 1
 519 401 l 1
 483 398 464 385 450 367 c 0
EndSplineSet
EndChar

StartChar: z
Encoding: 122 122 81
Width: 444
Flags: W
LayerCount: 2
Fore
SplineSet
384 0 m 1
 57 0 l 2
 35 0 28 1 28 18 c 0
 28 24 29 27 38 38 c 2
 306 402 l 1
 202 402 l 2
 97 402 80 368 74 265 c 1
 41 265 l 1
 53 431 l 1
 370 431 l 2
 391 431 399 429 399 414 c 0
 399 409 398 406 389 395 c 2
 122 32 l 1
 230 32 l 2
 340 32 360 73 369 191 c 1
 401 191 l 1
 384 0 l 1
EndSplineSet
EndChar

StartChar: dieresis
Encoding: 168 168 82
Width: 320
Flags: W
LayerCount: 2
Fore
SplineSet
246 557 m 0
 218 557 195 580 195 605 c 0
 195 627 214 652 247 652 c 0
 275 652 298 629 298 605 c 0
 298 582 279 557 246 557 c 0
73 557 m 0
 45 557 22 580 22 605 c 0
 22 627 41 652 74 652 c 0
 102 652 125 629 125 605 c 0
 125 582 106 557 73 557 c 0
EndSplineSet
EndChar

StartChar: tonos
Encoding: 900 900 83
Width: 167
Flags: W
LayerCount: 2
Fore
SplineSet
153 631 m 0
 145 619 128 599 97 560 c 2
 35 481 l 2
 31 477 16 488 16 491 c 0
 16 494 86 674 89 679 c 0
 92 684 101 700 119 700 c 0
 128 700 164 693 164 659 c 0
 164 650 163 644 153 631 c 0
EndSplineSet
EndChar

StartChar: dieresistonos
Encoding: 901 901 84
Width: 278
Flags: W
LayerCount: 2
Fore
SplineSet
170 678 m 0
 173 685 182 700 204 700 c 0
 239 700 248 669 248 660 c 0
 248 654 247 649 243 642 c 0
 242 639 234 629 223 615 c 0
 187 569 150 524 114 478 c 1
 96 488 l 1
 96 493 164 664 170 678 c 0
223 483 m 0
 199 483 181 503 181 525 c 0
 181 545 197 567 224 567 c 0
 249 567 267 547 267 525 c 0
 267 505 251 483 223 483 c 0
54 483 m 0
 29 483 11 503 11 525 c 0
 11 545 27 567 55 567 c 0
 79 567 97 547 97 525 c 0
 97 505 81 483 54 483 c 0
EndSplineSet
EndChar

StartChar: Alphatonos
Encoding: 902 902 85
Width: 710
Flags: W
LayerCount: 2
Fore
SplineSet
681 0 m 1
 662 4 525 3 513 0 c 0
 507 0 493 48 490 55 c 0
 481 83 470 115 461 137 c 1
 321 106 209 81 71 -20 c 1
 53 -20 32 -13 26 13 c 1
 77 97 145 199 201 290 c 0
 257 381 299 461 299 500 c 0
 299 523 292 542 278 563 c 0
 242 615 179 641 119 641 c 1
 119 683 l 1
 180 680 246 679 322 683 c 1
 599 63 l 2
 607 43 619 39 671 39 c 2
 691 39 l 1
 691 0 l 1
 681 0 l 1
341 411 m 1
 326 411 l 1
 313 390 151 133 151 128 c 1
 151 128 151 128 152 128 c 2
 155 129 l 1
 247 166 402 185 445 185 c 1
 419 242 363 364 341 411 c 1
EndSplineSet
EndChar

StartChar: anoteleia
Encoding: 903 903 86
Width: 278
Flags: W
LayerCount: 2
Fore
SplineSet
137 323 m 0
 109 323 85 347 85 375 c 0
 85 406 109 430 139 430 c 0
 168 430 192 406 192 377 c 0
 192 347 168 323 137 323 c 0
EndSplineSet
EndChar

StartChar: Epsilontonos
Encoding: 904 904 87
Width: 722
Flags: W
LayerCount: 2
Fore
SplineSet
635 494 m 0
 618 494 619 501 616 514 c 0
 586 614 520 666 414 666 c 0
 358 666 179 636 167 373 c 1
 384 383 l 2
 477 387 487 402 487 488 c 1
 520 488 l 1
 520 218 l 1
 487 218 l 1
 487 304 477 320 384 324 c 2
 166 334 l 1
 168 49 357 17 415 17 c 0
 521 17 577 64 626 136 c 0
 632 144 636 152 649 145 c 0
 663 137 658 127 654 119 c 0
 607 33 536 -22 403 -22 c 0
 218 -22 56 135 56 342 c 0
 56 546 217 705 403 705 c 0
 498 705 586 700 655 589 c 1
 655 522 l 2
 655 501 655 494 635 494 c 0
EndSplineSet
EndChar

StartChar: Etatonos
Encoding: 905 905 88
Width: 750
Flags: W
LayerCount: 2
Fore
SplineSet
566 3 m 0
 528 3 455 3 417 0 c 1
 417 39 l 1
 444 39 l 2
 516 39 518 48 518 81 c 2
 518 336 l 1
 231 336 l 1
 231 81 l 2
 231 48 233 39 305 39 c 2
 332 39 l 1
 332 0 l 1
 294 3 220 3 182 3 c 0
 145 3 72 3 33 0 c 1
 33 39 l 1
 61 39 l 2
 132 39 135 48 135 81 c 2
 135 602 l 2
 135 635 132 644 61 644 c 2
 33 644 l 1
 33 683 l 1
 72 680 146 680 183 680 c 0
 221 680 294 680 332 683 c 1
 332 644 l 1
 305 644 l 2
 233 644 231 635 231 602 c 2
 231 375 l 1
 518 375 l 1
 518 602 l 2
 518 635 516 644 444 644 c 2
 417 644 l 1
 417 683 l 1
 455 680 529 680 567 680 c 0
 604 680 677 680 716 683 c 1
 716 644 l 1
 688 644 l 2
 617 644 614 635 614 602 c 2
 614 81 l 2
 614 48 617 39 688 39 c 2
 716 39 l 1
 716 0 l 1
 677 3 603 3 566 3 c 0
EndSplineSet
EndChar

StartChar: Iotatonos
Encoding: 906 906 89
Width: 361
Flags: W
LayerCount: 2
Fore
SplineSet
318 0 m 2
 301 3 61 3 42 0 c 2
 28 0 l 1
 28 40 l 1
 49 40 l 2
 113 40 124 43 132 62 c 1
 132 622 l 1
 127 630 124 635 115 638 c 0
 104 642 86 643 49 643 c 2
 28 643 l 1
 28 683 l 1
 42 683 l 2
 59 680 299 680 318 683 c 2
 332 683 l 1
 332 643 l 1
 311 643 l 2
 243 643 236 638 229 622 c 1
 229 62 l 1
 234 47 238 40 311 40 c 2
 332 40 l 1
 332 0 l 1
 318 0 l 2
EndSplineSet
EndChar

StartChar: Omicrontonos
Encoding: 908 908 90
Width: 778
Flags: W
LayerCount: 2
Fore
SplineSet
388 -22 m 0
 210 -22 56 134 56 339 c 0
 56 545 209 705 388 705 c 0
 570 705 721 543 721 339 c 0
 721 137 570 -22 388 -22 c 0
388 672 m 0
 308 672 166 607 166 353 c 0
 166 96 297 12 389 12 c 0
 477 12 611 92 611 353 c 0
 611 604 472 672 388 672 c 0
EndSplineSet
EndChar

StartChar: Upsilontonos
Encoding: 910 910 91
Width: 778
Flags: W
LayerCount: 2
Fore
SplineSet
389 479 m 1
 390 485 l 2
 409 581 460 702 582 705 c 0
 690 708 722 600 722 543 c 0
 722 509 710 456 643 456 c 0
 604 456 595 482 595 501 c 0
 595 527 611 543 642 546 c 0
 663 548 677 554 677 571 c 0
 677 612 566 651 503 583 c 0
 473 551 452 497 443 428 c 0
 441 410 440 401 439 376 c 0
 438 351 438 309 437 225 c 0
 437 137 437 96 438 76 c 0
 438 73 438 60 440 57 c 0
 441 56 442 55 443 54 c 0
 449 44 470 40 538 40 c 2
 564 40 l 1
 564 0 l 1
 549 0 l 2
 530 3 249 3 229 0 c 2
 214 0 l 1
 214 40 l 1
 240 40 l 2
 308 40 329 45 335 54 c 0
 336 55 338 57 338 59 c 0
 339 61 340 65 340 74 c 0
 341 93 341 132 341 214 c 0
 341 300 340 370 340 379 c 0
 329 532 278 620 188 620 c 0
 169 620 101 609 94 549 c 0
 93 534 90 531 75 530 c 0
 62 529 55 532 55 548 c 0
 55 607 91 694 169 704 c 0
 279 718 350 630 389 479 c 1
EndSplineSet
EndChar

StartChar: Omegatonos
Encoding: 911 911 92
Width: 1000
Flags: W
LayerCount: 2
Fore
SplineSet
692 -22 m 0
 580 -22 526 38 499 81 c 1
 446 -13 346 -22 307 -22 c 0
 161 -22 55 143 55 341 c 0
 55 546 173 705 317 705 c 0
 323 705 336 701 336 689 c 0
 336 679 329 672 320 672 c 0
 260 672 165 604 165 345 c 0
 165 137 227 13 315 13 c 0
 337 13 449 32 453 80 c 0
 454 84 453 87 453 91 c 2
 453 487 l 2
 453 509 449 516 429 518 c 0
 423 519 415 519 403 519 c 1
 403 557 l 1
 436 555 463 555 492 555 c 0
 516 555 559 554 596 557 c 1
 596 519 l 1
 586 519 565 519 555 514 c 0
 549 511 545 504 545 487 c 2
 545 91 l 2
 545 72 545 69 562 54 c 0
 598 23 647 13 684 13 c 2
 685 13 l 2
 772 13 833 139 833 345 c 0
 833 606 739 672 679 672 c 0
 670 672 663 679 663 689 c 0
 663 701 676 705 682 705 c 0
 760 705 829 658 877 585 c 0
 924 512 944 426 944 341 c 0
 944 144 837 -22 692 -22 c 0
EndSplineSet
EndChar

StartChar: iotadieresistonos
Encoding: 912 912 93
Width: 286
Flags: W
LayerCount: 2
Fore
SplineSet
229 511 m 0
 201 511 179 536 179 563 c 0
 179 586 198 613 230 613 c 0
 259 613 281 588 281 563 c 0
 281 538 262 511 229 511 c 0
57 511 m 0
 28 511 6 536 6 563 c 0
 6 586 25 613 58 613 c 0
 86 613 108 588 108 563 c 0
 108 538 89 511 57 511 c 0
143 3 m 0
 100 3 68 1 32 0 c 1
 32 31 l 1
 44 31 l 2
 101 31 108 37 108 72 c 2
 108 363 l 2
 108 400 97 405 41 405 c 2
 32 405 l 1
 32 435 l 1
 71 432 106 432 142 432 c 0
 180 432 218 432 260 435 c 1
 260 405 l 1
 249 405 l 2
 185 405 184 397 184 345 c 2
 184 92 l 2
 184 40 185 31 249 31 c 2
 260 31 l 1
 260 0 l 1
 218 2 181 3 143 3 c 0
EndSplineSet
EndChar

StartChar: Alpha
Encoding: 913 913 94
Width: 710
Flags: W
LayerCount: 2
Fore
SplineSet
681 0 m 1
 662 4 525 3 513 0 c 0
 507 0 493 48 490 55 c 0
 481 83 470 115 461 137 c 1
 321 106 209 81 71 -20 c 1
 53 -20 32 -13 26 13 c 1
 77 97 145 199 201 290 c 0
 257 381 299 461 299 500 c 0
 299 523 292 542 278 563 c 0
 242 615 179 641 119 641 c 1
 119 683 l 1
 180 680 246 680 322 684 c 1
 599 63 l 2
 607 43 619 39 671 39 c 2
 691 39 l 1
 691 0 l 1
 681 0 l 1
341 411 m 1
 326 411 l 1
 313 390 151 133 151 128 c 1
 151 128 151 128 152 128 c 2
 155 129 l 1
 247 166 402 185 445 185 c 1
 419 242 363 364 341 411 c 1
EndSplineSet
EndChar

StartChar: Beta
Encoding: 914 914 95
Width: 708
Flags: W
LayerCount: 2
Fore
SplineSet
326 -22 m 0
 172 -22 138 33 138 81 c 2
 138 602 l 2
 138 636 137 660 63 660 c 2
 24 660 l 1
 24 702 l 1
 95 699 160 699 227 703 c 1
 227 592 l 1
 286 660 346 693 441 693 c 0
 499 693 595 651 595 562 c 0
 595 490 498 395 422 359 c 1
 528 342 641 270 641 185 c 0
 641 83 552 -22 326 -22 c 0
309 340 m 1
 259 368 l 1
 436 397 491 501 491 562 c 0
 491 611 447 645 394 645 c 0
 351 645 284 598 227 516 c 1
 227 74 l 2
 227 51 248 35 332 35 c 0
 395 35 534 39 534 186 c 0
 534 287 401 340 309 340 c 1
EndSplineSet
EndChar

StartChar: Gamma
Encoding: 915 915 96
Width: 625
Flags: W
LayerCount: 2
Fore
SplineSet
548 448 m 1
 548 456 l 1
 542 502 534 573 499 606 c 0
 479 624 455 633 427 637 c 0
 399 641 368 640 335 640 c 0
 289 641 265 642 251 640 c 0
 239 639 236 635 231 627 c 1
 230 346 l 2
 229 33 230 -38 235 -46 c 0
 242 -56 264 -60 331 -60 c 2
 356 -60 l 1
 356 -100 l 1
 340 -100 l 2
 324 -97 68 -96 46 -100 c 1
 32 -100 l 1
 32 -60 l 1
 54 -60 l 2
 124 -60 127 -55 134 -35 c 1
 134 615 l 1
 129 629 123 634 113 637 c 0
 97 642 70 640 54 640 c 2
 32 640 l 1
 32 680 l 1
 46 680 l 2
 52 679 74 679 129 679 c 0
 184 679 270 680 405 680 c 2
 554 680 l 1
 554 673 l 2
 557 663 563 613 569 564 c 0
 572 538 575 512 577 492 c 0
 580 471 581 458 582 457 c 2
 582 448 l 1
 548 448 l 1
EndSplineSet
EndChar

StartChar: Epsilon
Encoding: 917 917 97
Width: 722
Flags: W
LayerCount: 2
Fore
SplineSet
635 494 m 0
 618 494 619 501 616 514 c 0
 586 614 520 666 414 666 c 0
 358 666 179 636 167 373 c 1
 384 383 l 2
 477 387 487 402 487 488 c 1
 520 488 l 1
 520 218 l 1
 487 218 l 1
 487 304 477 320 384 324 c 2
 166 334 l 1
 168 49 357 17 415 17 c 0
 521 17 577 64 626 136 c 0
 632 144 636 152 649 145 c 0
 663 137 658 127 654 119 c 0
 607 33 536 -22 403 -22 c 0
 218 -22 56 135 56 342 c 0
 56 546 217 705 403 705 c 0
 498 705 586 700 655 589 c 1
 655 522 l 2
 655 501 655 494 635 494 c 0
EndSplineSet
EndChar

StartChar: Zeta
Encoding: 918 918 98
Width: 611
Flags: W
LayerCount: 2
Fore
SplineSet
543 0 m 1
 86 0 l 2
 61 0 56 1 56 21 c 0
 56 30 56 31 64 43 c 2
 443 644 l 1
 295 644 l 2
 137 644 108 567 101 453 c 1
 69 453 l 1
 80 683 l 1
 525 683 l 2
 548 683 554 682 554 663 c 0
 554 655 554 654 547 642 c 2
 168 42 l 1
 323 42 l 2
 502 42 520 131 528 272 c 1
 560 272 l 1
 543 0 l 1
EndSplineSet
EndChar

StartChar: Eta
Encoding: 919 919 99
Width: 750
Flags: W
LayerCount: 2
Fore
SplineSet
566 3 m 0
 528 3 455 3 417 0 c 1
 417 39 l 1
 444 39 l 2
 516 39 518 48 518 81 c 2
 518 336 l 1
 231 336 l 1
 231 81 l 2
 231 48 233 39 305 39 c 2
 332 39 l 1
 332 0 l 1
 294 3 220 3 182 3 c 0
 145 3 72 3 33 0 c 1
 33 39 l 1
 61 39 l 2
 132 39 135 48 135 81 c 2
 135 602 l 2
 135 635 132 644 61 644 c 2
 33 644 l 1
 33 683 l 1
 72 680 146 680 183 680 c 0
 221 680 294 680 332 683 c 1
 332 644 l 1
 305 644 l 2
 233 644 231 635 231 602 c 2
 231 375 l 1
 518 375 l 1
 518 602 l 2
 518 635 516 644 444 644 c 2
 417 644 l 1
 417 683 l 1
 455 680 529 680 567 680 c 0
 604 680 677 680 716 683 c 1
 716 644 l 1
 688 644 l 2
 617 644 614 635 614 602 c 2
 614 81 l 2
 614 48 617 39 688 39 c 2
 716 39 l 1
 716 0 l 1
 677 3 603 3 566 3 c 0
EndSplineSet
EndChar

StartChar: Theta
Encoding: 920 920 100
Width: 778
Flags: W
LayerCount: 2
Fore
SplineSet
388 -22 m 0
 212 -22 55 131 55 339 c 0
 55 547 209 705 388 705 c 0
 565 705 721 548 721 339 c 0
 721 130 564 -22 388 -22 c 0
530 606 m 0
 470 670 405 672 388 672 c 0
 301 672 235 609 203 544 c 0
 176 490 169 438 166 390 c 1
 610 390 l 1
 606 466 587 546 530 606 c 0
166 320 m 1
 170 243 184 149 249 80 c 0
 275 51 322 13 388 13 c 0
 487 13 587 102 607 280 c 0
 609 294 609 307 610 320 c 1
 166 320 l 1
EndSplineSet
EndChar

StartChar: Iota
Encoding: 921 921 101
Width: 361
Flags: W
LayerCount: 2
Fore
SplineSet
318 0 m 2
 301 3 61 3 42 0 c 2
 28 0 l 1
 28 40 l 1
 49 40 l 2
 113 40 124 43 132 62 c 1
 132 622 l 1
 127 630 124 635 115 638 c 0
 104 642 86 643 49 643 c 2
 28 643 l 1
 28 683 l 1
 42 683 l 2
 59 680 299 680 318 683 c 2
 332 683 l 1
 332 643 l 1
 311 643 l 2
 243 643 236 638 229 622 c 1
 229 62 l 1
 234 47 238 40 311 40 c 2
 332 40 l 1
 332 0 l 1
 318 0 l 2
EndSplineSet
EndChar

StartChar: Kappa
Encoding: 922 922 102
Width: 778
Flags: W
LayerCount: 2
Fore
SplineSet
724 0 m 1
 710 4 500 3 486 0 c 2
 472 0 l 1
 472 40 l 1
 489 40 l 2
 509 40 529 46 529 64 c 0
 529 68 528 75 524 82 c 0
 519 91 341 358 340 358 c 2
 340 358 335 352 326 343 c 0
 294 313 263 282 231 252 c 1
 231 159 l 2
 231 113 231 89 231 76 c 0
 231 64 232 62 232 60 c 0
 237 46 249 40 311 40 c 2
 333 40 l 1
 333 0 l 1
 318 0 l 2
 301 3 66 3 46 0 c 2
 32 0 l 1
 32 40 l 1
 54 40 l 2
 125 40 127 45 134 65 c 1
 134 618 l 1
 129 632 124 637 113 640 c 0
 97 645 70 643 54 643 c 2
 32 643 l 1
 32 683 l 1
 46 683 l 2
 64 680 299 680 318 683 c 2
 333 683 l 1
 333 643 l 1
 311 643 l 2
 300 643 235 651 231 618 c 0
 231 615 231 609 231 598 c 0
 230 577 230 536 231 454 c 2
 232 299 l 1
 382 443 l 2
 485 541 540 594 542 597 c 0
 546 603 548 610 548 616 c 0
 548 636 520 643 512 643 c 2
 504 643 l 1
 504 683 l 1
 517 683 l 1
 537 679 704 680 712 683 c 2
 722 683 l 1
 722 643 l 1
 713 643 l 2
 659 643 614 613 593 596 c 0
 588 592 565 570 541 548 c 0
 496 504 450 461 405 417 c 1
 418 397 628 87 635 79 c 0
 655 54 667 40 714 40 c 2
 736 40 l 1
 736 0 l 1
 724 0 l 1
EndSplineSet
EndChar

StartChar: Lambda
Encoding: 923 923 103
Width: 694
Flags: W
LayerCount: 2
Fore
SplineSet
314 560 m 2
 314 553 309 529 297 494 c 0
 255 360 211 226 168 92 c 1
 168 84 l 2
 168 61 194 40 230 40 c 2
 244 40 l 1
 244 0 l 1
 231 0 l 1
 210 4 49 2 42 0 c 2
 32 0 l 1
 32 40 l 1
 47 40 l 2
 90 40 117 62 129 100 c 0
 130 101 132 110 138 126 c 2
 159 193 l 2
 177 248 201 323 228 405 c 0
 254 487 269 534 277 560 c 2
 286 586 l 2
 286 589 287 590 287 592 c 0
 263 638 232 641 171 641 c 1
 171 683 l 1
 233 680 299 680 373 684 c 1
 379 678 542 165 564 100 c 0
 570 80 573 71 575 66 c 0
 576 64 576 63 577 62 c 2
 578 60 l 2
 585 45 595 40 635 40 c 2
 661 40 l 1
 661 0 l 1
 649 0 l 2
 639 3 426 4 404 0 c 1
 388 0 l 1
 388 40 l 1
 404 40 l 2
 431 40 472 41 472 65 c 0
 471 72 432 194 393 316 c 0
 368 392 345 467 320 542 c 2
 315 558 l 1
 314 560 l 2
EndSplineSet
EndChar

StartChar: Mu
Encoding: 924 924 104
Width: 917
Flags: W
LayerCount: 2
Fore
SplineSet
175 622 m 1
 175 108 l 2
 175 82 175 39 277 39 c 1
 277 0 l 1
 157 3 l 1
 37 0 l 1
 37 39 l 1
 139 39 139 82 139 108 c 2
 139 602 l 2
 139 635 136 644 65 644 c 2
 37 644 l 1
 37 683 l 1
 208 683 l 2
 231 683 237 683 247 659 c 2
 458 115 l 1
 671 662 l 2
 680 683 682 683 708 683 c 2
 879 683 l 1
 879 644 l 1
 851 644 l 2
 780 644 777 635 777 602 c 2
 777 81 l 2
 777 48 780 39 851 39 c 2
 879 39 l 1
 879 0 l 1
 838 3 772 3 733 3 c 0
 695 3 628 3 587 0 c 1
 587 39 l 1
 615 39 l 2
 686 39 689 48 689 81 c 2
 689 630 l 1
 452 21 l 2
 448 11 444 0 430 0 c 0
 417 0 412 12 407 24 c 2
 175 622 l 1
EndSplineSet
EndChar

StartChar: Nu
Encoding: 925 925 105
Width: 750
Flags: W
LayerCount: 2
Fore
SplineSet
614 575 m 2
 614 30 l 2
 614 7 613 0 596 0 c 0
 587 0 585 2 576 15 c 2
 173 608 l 1
 170 611 l 1
 170 108 l 2
 170 82 171 39 272 39 c 1
 272 0 l 1
 152 3 l 1
 33 0 l 1
 33 39 l 1
 134 39 135 82 135 108 c 2
 135 624 l 2
 135 639 134 640 115 642 c 0
 100 644 80 644 66 644 c 2
 33 644 l 1
 33 683 l 1
 205 683 l 2
 225 683 228 682 237 668 c 2
 579 166 l 1
 579 575 l 2
 579 601 578 644 477 644 c 1
 477 683 l 1
 596 680 l 1
 716 683 l 1
 716 644 l 1
 615 644 614 601 614 575 c 2
EndSplineSet
EndChar

StartChar: Xi
Encoding: 926 926 106
Width: 637
Flags: W
LayerCount: 2
Fore
SplineSet
560 -97 m 1
 560 -82 l 2
 560 -38 557 -19 551 -10 c 0
 547 -6 541 -4 526 -2 c 0
 511 -1 488 -1 452 -1 c 2
 333 -1 l 1
 50 -1 l 1
 50 62 l 1
 111 89 191 121 256 157 c 0
 322 193 369 231 369 267 c 0
 369 307 311 332 249 332 c 0
 193 332 158 316 107 293 c 1
 98 307 l 1
 98 343 l 1
 437 599 l 1
 333 599 l 2
 131 599 101 598 93 593 c 0
 84 590 81 545 81 520 c 0
 81 517 80 514 64 514 c 2
 47 514 l 1
 55 677 l 1
 572 677 l 1
 572 641 l 1
 234 393 l 1
 236 389 l 1
 267 395 293 404 326 404 c 0
 372 404 470 385 470 318 c 0
 470 211 275 125 190 86 c 1
 190 77 l 1
 290 77 586 73 586 72 c 2
 594 -97 l 1
 560 -97 l 1
EndSplineSet
Substitution2: "'salt' Stylistic Alternatives lookup 0-1" Xi.alt
EndChar

StartChar: Omicron
Encoding: 927 927 107
Width: 778
Flags: W
LayerCount: 2
Fore
SplineSet
388 -22 m 0
 210 -22 56 134 56 339 c 0
 56 545 209 705 388 705 c 0
 570 705 721 543 721 339 c 0
 721 137 570 -22 388 -22 c 0
388 672 m 0
 308 672 166 607 166 353 c 0
 166 96 297 12 389 12 c 0
 477 12 611 92 611 353 c 0
 611 604 472 672 388 672 c 0
EndSplineSet
EndChar

StartChar: Pi
Encoding: 928 928 108
Width: 750
Flags: W
LayerCount: 2
Fore
SplineSet
703 0 m 2
 685 3 450 3 431 0 c 2
 417 0 l 1
 417 40 l 1
 438 40 l 2
 509 40 512 45 518 65 c 1
 518 640 l 1
 231 640 l 1
 231 65 l 1
 239 40 251 40 311 40 c 2
 332 40 l 1
 332 0 l 1
 318 0 l 2
 301 3 66 3 46 0 c 2
 32 0 l 1
 32 40 l 1
 54 40 l 2
 125 40 127 45 134 65 c 1
 134 615 l 1
 129 629 124 634 113 637 c 0
 97 642 70 640 54 640 c 2
 32 640 l 1
 32 680 l 1
 46 680 l 2
 51 679 170 676 202 678 c 0
 218 679 253 680 375 680 c 0
 483 680 520 679 543 678 c 0
 566 677 576 677 630 678 c 2
 677 679 l 2
 690 679 700 679 703 680 c 2
 717 680 l 1
 717 640 l 1
 695 640 l 2
 627 640 623 636 615 615 c 1
 615 65 l 1
 624 40 635 40 695 40 c 2
 717 40 l 1
 717 0 l 1
 703 0 l 2
EndSplineSet
EndChar

StartChar: Rho
Encoding: 929 929 109
Width: 681
Flags: W
LayerCount: 2
Fore
SplineSet
451 317 m 0
 438 315 432 313 417 313 c 0
 402 312 377 312 321 311 c 1
 321 346 l 1
 340 346 366 345 395 349 c 0
 423 353 454 361 477 382 c 0
 508 407 513 451 513 494 c 0
 513 586 482 640 379 643 c 0
 368 643 351 643 322 643 c 0
 286 644 255 642 252 642 c 0
 234 641 233 633 233 631 c 2
 232 81 l 2
 232 48 235 39 306 39 c 2
 334 39 l 1
 334 0 l 1
 295 3 221 3 184 3 c 0
 147 3 74 3 35 0 c 1
 35 39 l 1
 63 39 l 2
 134 39 137 48 137 81 c 2
 136 618 l 1
 131 632 125 637 115 640 c 0
 99 645 72 643 56 643 c 2
 34 643 l 1
 34 683 l 1
 48 683 l 2
 65 680 110 680 165 681 c 0
 220 682 285 683 340 683 c 0
 388 683 440 684 486 666 c 0
 521 653 624 604 624 494 c 0
 624 421 562 341 451 317 c 0
EndSplineSet
EndChar

StartChar: Sigma
Encoding: 931 931 110
Width: 722
Flags: W
LayerCount: 2
Fore
SplineSet
635 494 m 0
 618 494 619 501 616 514 c 0
 586 614 520 666 414 666 c 0
 355 666 166 634 166 341 c 0
 166 49 356 17 415 17 c 0
 521 17 577 64 626 136 c 0
 632 144 636 152 649 145 c 0
 663 137 658 127 654 119 c 0
 607 33 536 -22 403 -22 c 0
 218 -22 56 135 56 342 c 0
 56 546 217 705 403 705 c 0
 498 705 586 700 655 589 c 1
 655 522 l 2
 655 501 655 494 635 494 c 0
EndSplineSet
EndChar

StartChar: Tau
Encoding: 932 932 111
Width: 722
Flags: W
LayerCount: 2
Fore
SplineSet
653 447 m 1
 639 608 625 638 479 638 c 0
 469 638 458 639 447 638 c 0
 437 638 428 638 423 637 c 0
 411 634 409 626 409 616 c 0
 408 612 408 608 408 603 c 2
 408 82 l 2
 408 50 409 39 508 39 c 2
 552 39 l 1
 552 0 l 1
 507 3 405 3 360 3 c 0
 315 3 214 3 169 0 c 1
 169 39 l 1
 213 39 l 2
 312 39 313 50 313 82 c 2
 313 603 l 2
 313 626 312 633 295 637 c 0
 286 638 260 638 242 638 c 0
 96 638 82 608 68 447 c 1
 36 447 l 1
 55 677 l 1
 666 677 l 1
 685 447 l 1
 653 447 l 1
EndSplineSet
EndChar

StartChar: Upsilon
Encoding: 933 933 112
Width: 778
Flags: W
LayerCount: 2
Fore
SplineSet
389 479 m 1
 390 485 l 2
 409 581 460 702 582 705 c 0
 690 708 722 600 722 543 c 0
 722 509 710 456 643 456 c 0
 604 456 595 482 595 501 c 0
 595 527 611 543 642 546 c 0
 663 548 677 554 677 571 c 0
 677 612 566 651 503 583 c 0
 473 551 452 497 443 428 c 0
 441 410 440 401 439 376 c 0
 438 351 438 309 437 225 c 0
 437 137 437 96 438 76 c 0
 438 73 438 60 440 57 c 0
 441 56 442 55 443 54 c 0
 449 44 470 40 538 40 c 2
 564 40 l 1
 564 0 l 1
 549 0 l 2
 530 3 249 3 229 0 c 2
 214 0 l 1
 214 40 l 1
 240 40 l 2
 308 40 329 45 335 54 c 0
 336 55 338 57 338 59 c 0
 339 61 340 65 340 74 c 0
 341 93 341 132 341 214 c 0
 341 300 340 370 340 379 c 0
 329 532 278 620 188 620 c 0
 169 620 101 609 94 549 c 0
 93 534 90 531 75 530 c 0
 62 529 55 532 55 548 c 0
 55 607 91 694 169 704 c 0
 279 718 350 630 389 479 c 1
EndSplineSet
EndChar

StartChar: Phi
Encoding: 934 934 113
Width: 722
Flags: W
LayerCount: 2
Fore
SplineSet
412 135 m 2
 403 134 l 1
 403 2 l 2
 403 -37 403 -38 409 -46 c 0
 415 -56 436 -60 504 -60 c 2
 530 -60 l 1
 530 -100 l 1
 515 -100 l 2
 496 -97 220 -97 201 -100 c 2
 186 -100 l 1
 186 -60 l 1
 212 -60 l 2
 267 -60 292 -58 303 -50 c 0
 308 -46 311 -41 312 -32 c 0
 313 -24 313 -12 313 2 c 2
 313 134 l 1
 260 143 229 148 180 173 c 0
 100 213 55 276 55 342 c 0
 55 466 194 534 313 549 c 1
 313 681 l 2
 313 720 313 721 307 729 c 0
 301 739 280 743 212 743 c 2
 186 743 l 1
 186 783 l 1
 201 783 l 2
 220 780 496 780 515 783 c 2
 530 783 l 1
 530 743 l 1
 504 743 l 2
 449 743 424 741 413 733 c 0
 408 729 406 724 404 715 c 0
 403 707 403 695 403 681 c 2
 403 549 l 1
 505 540 666 478 666 341 c 0
 666 217 522 144 412 135 c 2
403 166 m 2
 406 166 413 167 420 168 c 0
 498 185 547 230 556 306 c 0
 558 322 557 335 557 342 c 0
 557 415 535 448 519 464 c 0
 483 502 423 517 403 517 c 1
 403 166 l 2
315 517 m 0
 297 517 236 500 202 464 c 0
 186 448 163 413 163 342 c 0
 163 268 186 236 202 219 c 0
 226 193 260 177 301 168 c 0
 308 167 315 166 316 166 c 0
 317 166 313 201 313 342 c 0
 313 509 317 517 315 517 c 0
EndSplineSet
EndChar

StartChar: Chi
Encoding: 935 935 114
Width: 750
Flags: W
LayerCount: 2
Fore
SplineSet
593 3 m 2
 556 4 484 3 445 0 c 1
 445 38 l 1
 492 40 509 56 509 64 c 0
 509 66 506 72 505 73 c 2
 352 304 l 1
 215 102 l 2
 208 91 206 88 206 80 c 0
 206 65 221 39 268 38 c 1
 268 0 l 1
 187 6 105 2 24 0 c 1
 24 39 l 1
 78 39 129 49 162 94 c 0
 164 97 166 100 168 102 c 2
 329 339 l 1
 148 612 l 2
 131 638 114 644 60 644 c 2
 37 644 l 1
 37 683 l 1
 169 680 l 2
 207 679 279 680 318 683 c 1
 318 645 l 1
 271 643 253 627 253 619 c 0
 253 615 258 609 260 606 c 2
 384 420 l 1
 398 441 462 533 498 589 c 0
 501 594 502 597 502 603 c 0
 502 623 482 643 440 645 c 1
 440 683 l 1
 523 677 602 681 684 683 c 1
 684 644 l 1
 594 643 561 613 540 582 c 2
 406 385 l 1
 614 72 l 2
 633 43 652 39 703 39 c 2
 726 39 l 1
 726 0 l 1
 593 3 l 2
EndSplineSet
EndChar

StartChar: Psi
Encoding: 936 936 115
Width: 778
Flags: W
LayerCount: 2
Fore
SplineSet
431 134 m 2
 431 2 l 2
 431 -37 431 -38 437 -46 c 0
 443 -56 464 -60 532 -60 c 2
 558 -60 l 1
 558 -100 l 1
 543 -100 l 2
 524 -97 248 -97 229 -100 c 2
 214 -100 l 1
 214 -60 l 1
 240 -60 l 2
 295 -60 320 -58 331 -50 c 0
 336 -46 339 -41 340 -32 c 0
 341 -24 341 -12 341 2 c 2
 341 135 l 1
 189 167 123 270 123 407 c 0
 123 462 112 524 71 524 c 0
 62 524 55 532 55 540 c 0
 55 556 70 555 81 555 c 0
 88 555 96 555 106 555 c 0
 142 555 145 554 152 552 c 0
 185 541 204 507 212 453 c 0
 212 437 215 365 219 340 c 0
 230 264 261 198 341 169 c 1
 341 490 l 2
 341 615 341 674 340 701 c 0
 340 702 340 723 338 726 c 0
 322 749 246 743 240 743 c 2
 214 743 l 1
 214 783 l 1
 229 783 l 2
 248 780 524 780 543 783 c 2
 558 783 l 1
 558 743 l 1
 532 743 l 2
 527 743 450 748 434 726 c 0
 432 723 432 702 432 701 c 0
 431 674 431 615 431 490 c 2
 431 169 l 1
 457 177 474 184 495 202 c 0
 518 222 536 255 547 291 c 0
 558 324 561 353 563 408 c 0
 563 428 565 446 565 453 c 0
 571 493 588 550 637 554 c 0
 643 555 653 555 672 555 c 2
 713 555 l 1
 718 550 722 548 722 540 c 0
 722 527 712 524 706 524 c 0
 668 524 663 475 657 447 c 0
 656 445 656 442 655 440 c 2
 654 407 l 2
 653 389 652 370 652 363 c 0
 636 235 560 154 439 136 c 2
 433 135 l 2
 432 135 432 135 431 134 c 2
EndSplineSet
EndChar

StartChar: Iotadieresis
Encoding: 938 938 116
Width: 361
Flags: W
LayerCount: 2
Fore
SplineSet
266 729 m 0
 237 729 215 754 215 780 c 0
 215 804 234 831 267 831 c 0
 295 831 317 806 317 780 c 0
 317 756 298 729 266 729 c 0
92 729 m 0
 64 729 42 754 42 780 c 0
 42 804 61 831 93 831 c 0
 122 831 144 806 144 780 c 0
 144 756 125 729 92 729 c 0
318 0 m 2
 301 3 61 3 42 0 c 2
 28 0 l 1
 28 40 l 1
 49 40 l 2
 113 40 124 43 132 62 c 1
 132 623 l 1
 127 631 124 636 115 640 c 0
 104 643 86 645 49 645 c 2
 28 645 l 1
 28 684 l 1
 42 684 l 2
 59 681 299 681 318 684 c 2
 332 684 l 1
 332 645 l 1
 311 645 l 2
 243 645 236 640 229 623 c 1
 229 62 l 1
 234 47 238 40 311 40 c 2
 332 40 l 1
 332 0 l 1
 318 0 l 2
EndSplineSet
EndChar

StartChar: Upsilondieresis
Encoding: 939 939 117
Width: 778
Flags: W
LayerCount: 2
Fore
SplineSet
477 729 m 0
 448 729 426 754 426 780 c 0
 426 804 445 831 478 831 c 0
 507 831 529 806 529 780 c 0
 529 756 510 729 477 729 c 0
301 729 m 0
 272 729 250 754 250 780 c 0
 250 804 269 831 302 831 c 0
 331 831 353 806 353 780 c 0
 353 756 334 729 301 729 c 0
389 480 m 1
 390 486 l 2
 409 582 460 703 582 706 c 0
 690 709 722 601 722 544 c 0
 722 510 710 457 643 457 c 0
 604 457 595 483 595 502 c 0
 595 527 611 544 642 547 c 0
 663 548 677 555 677 571 c 0
 677 613 566 652 503 584 c 0
 473 552 452 498 443 428 c 0
 441 411 440 402 439 377 c 0
 438 352 438 310 437 226 c 0
 437 137 437 96 438 76 c 0
 438 73 438 60 440 57 c 0
 441 56 442 55 443 54 c 0
 449 44 470 40 538 40 c 2
 564 40 l 1
 564 0 l 1
 549 0 l 2
 530 3 249 3 229 0 c 2
 214 0 l 1
 214 40 l 1
 240 40 l 2
 308 40 329 45 335 54 c 0
 336 55 338 57 338 59 c 0
 339 61 340 65 340 75 c 0
 341 93 341 132 341 214 c 0
 341 301 340 370 340 380 c 0
 329 533 278 621 188 621 c 0
 169 621 101 610 94 550 c 0
 93 535 90 531 75 531 c 0
 62 530 55 533 55 549 c 0
 55 608 91 695 169 705 c 0
 279 719 350 631 389 480 c 1
EndSplineSet
EndChar

StartChar: alphatonos
Encoding: 940 940 118
Width: 526
Flags: W
LayerCount: 2
Fore
SplineSet
365 0 m 1
 325 86 l 1
 320 86 l 1
 219 64 138 50 53 -13 c 1
 41 -13 26 -8 22 10 c 1
 88 118 174 183 192 319 c 0
 199 370 147 394 76 394 c 1
 76 432 l 1
 189 430 l 2
 215 430 223 423 237 397 c 2
 412 77 l 2
 433 39 475 38 512 38 c 1
 512 0 l 1
 365 0 l 1
138 97 m 1
 195 120 275 127 303 128 c 1
 286 164 250 233 237 262 c 1
 232 262 l 1
 192 199 144 110 138 97 c 1
EndSplineSet
EndChar

StartChar: epsilontonos
Encoding: 941 941 119
Width: 457
Flags: W
LayerCount: 2
Fore
SplineSet
258 -14 m 0
 140 -14 36 87 36 219 c 0
 36 350 139 451 258 451 c 0
 318 451 374 448 419 376 c 1
 419 333 l 2
 419 317 418 311 405 311 c 0
 394 311 391 319 388 328 c 0
 369 391 325 420 258 420 c 0
 232 420 123 403 123 218 c 0
 123 33 238 18 265 18 c 0
 332 18 362 43 394 89 c 0
 404 102 422 95 422 86 c 0
 422 82 420 79 419 77 c 0
 390 21 343 -14 258 -14 c 0
300 138 m 1
 300 193 300 199 245 203 c 2
 101 214 l 1
 101 239 l 1
 245 249 l 2
 300 253 300 259 300 313 c 1
 334 313 l 1
 334 138 l 1
 300 138 l 1
EndSplineSet
EndChar

StartChar: etatonos
Encoding: 942 942 120
Width: 555
Flags: W
LayerCount: 2
Fore
SplineSet
410 3 m 2
 406 3 l 2
 392 3 360 3 299 0 c 1
 299 30 l 1
 308 30 l 2
 365 30 375 36 375 74 c 0
 375 80 374 85 374 91 c 2
 374 222 l 1
 179 222 l 1
 179 74 l 2
 179 35 188 30 245 30 c 2
 254 30 l 1
 254 0 l 1
 212 2 175 3 136 3 c 2
 132 3 l 2
 119 3 86 3 25 0 c 1
 25 30 l 1
 37 30 l 2
 94 30 102 37 102 72 c 2
 102 359 l 2
 102 394 93 401 36 401 c 2
 25 401 l 1
 25 430 l 1
 65 428 102 428 138 428 c 0
 176 428 213 428 254 430 c 1
 254 401 l 1
 247 401 l 2
 191 401 179 397 179 359 c 2
 179 251 l 1
 374 251 l 1
 374 359 l 2
 374 397 363 401 307 401 c 2
 299 401 l 1
 299 430 l 1
 339 428 375 428 411 428 c 0
 448 428 487 428 528 430 c 1
 528 401 l 1
 517 401 l 2
 459 401 451 393 451 359 c 2
 451 72 l 2
 451 37 459 30 516 30 c 2
 528 30 l 1
 528 0 l 1
 486 2 448 3 410 3 c 2
EndSplineSet
EndChar

StartChar: iotatonos
Encoding: 943 943 121
Width: 286
Flags: W
LayerCount: 2
Fore
SplineSet
143 3 m 0
 101 3 69 1 33 0 c 1
 33 30 l 1
 45 30 l 2
 101 30 108 37 108 72 c 2
 108 361 l 2
 108 398 98 403 42 403 c 2
 33 403 l 1
 33 432 l 1
 72 430 106 430 142 430 c 0
 180 430 217 430 259 432 c 1
 259 403 l 1
 248 403 l 2
 185 403 184 394 184 343 c 2
 184 91 l 2
 184 40 185 30 248 30 c 2
 259 30 l 1
 259 0 l 1
 217 2 181 3 143 3 c 0
EndSplineSet
EndChar

StartChar: upsilondieresistonos
Encoding: 944 944 122
Width: 536
Flags: W
LayerCount: 2
Fore
SplineSet
352 511 m 0
 323 511 300 536 300 562 c 0
 300 586 320 613 353 613 c 0
 381 613 404 588 404 562 c 0
 404 538 385 511 352 511 c 0
176 511 m 0
 148 511 125 536 125 562 c 0
 125 586 144 613 177 613 c 0
 206 613 229 588 229 562 c 0
 229 538 209 511 176 511 c 0
263 265 m 1
 263 266 l 1
 278 336 315 427 406 430 c 0
 486 432 510 350 510 308 c 0
 510 283 500 243 450 243 c 0
 421 243 413 262 413 277 c 0
 413 298 427 310 450 311 c 0
 465 312 475 317 475 329 c 0
 475 358 395 388 348 338 c 0
 325 314 310 275 303 223 c 0
 300 197 300 194 300 69 c 2
 300 -114 l 2
 300 -149 302 -156 366 -156 c 2
 377 -156 l 1
 377 -195 l 1
 336 -193 297 -192 260 -192 c 0
 238 -192 207 -192 150 -195 c 1
 150 -156 l 1
 158 -156 l 2
 223 -156 227 -150 227 -114 c 2
 227 69 l 2
 227 134 226 181 226 188 c 0
 218 301 181 365 115 365 c 0
 101 365 53 357 48 313 c 0
 46 303 43 297 32 297 c 0
 21 296 16 301 16 312 c 0
 16 356 43 421 101 429 c 0
 182 439 234 374 263 265 c 1
EndSplineSet
Substitution2: "'salt' Stylistic Alternatives lookup 0-1" upsilondieresistonos.alt
EndChar

StartChar: alpha
Encoding: 945 945 123
Width: 526
Flags: W
LayerCount: 2
Fore
SplineSet
365 0 m 1
 325 86 l 1
 320 86 l 1
 219 64 138 50 53 -13 c 1
 41 -13 26 -8 22 10 c 1
 88 118 174 183 192 319 c 0
 199 370 147 394 76 394 c 1
 76 432 l 1
 189 430 l 2
 215 430 223 423 237 397 c 2
 412 77 l 2
 433 39 475 38 512 38 c 1
 512 0 l 1
 365 0 l 1
138 97 m 1
 195 120 275 127 303 128 c 1
 286 164 250 233 237 262 c 1
 232 262 l 1
 192 199 144 110 138 97 c 1
EndSplineSet
EndChar

StartChar: beta
Encoding: 946 946 124
Width: 453
Flags: W
LayerCount: 2
Fore
SplineSet
209 -14 m 0
 111 -14 71 20 71 53 c 2
 71 374 l 2
 71 395 70 411 25 411 c 2
 8 411 l 1
 7 449 l 1
 54 447 103 448 147 450 c 1
 147 382 l 1
 184 423 222 444 282 444 c 0
 318 444 397 417 397 359 c 0
 397 314 357 257 281 230 c 1
 355 221 423 172 423 119 c 0
 423 52 353 -14 209 -14 c 0
197 216 m 1
 162 236 l 1
 279 255 312 320 312 359 c 0
 312 389 285 410 252 410 c 0
 225 410 183 390 147 339 c 1
 147 48 l 2
 147 36 159 25 212 25 c 0
 253 25 340 28 340 120 c 0
 340 183 256 216 197 216 c 1
EndSplineSet
EndChar

StartChar: gamma
Encoding: 947 947 125
Width: 444
Flags: W
LayerCount: 2
Fore
SplineSet
386 265 m 1
 378 374 364 401 263 401 c 2
 215 401 l 2
 179 401 178 394 178 348 c 2
 178 74 l 2
 178 37 187 30 259 30 c 2
 273 30 l 1
 273 0 l 1
 226 2 184 3 141 3 c 0
 130 3 96 3 25 0 c 1
 25 30 l 1
 37 30 l 2
 94 30 101 37 101 72 c 2
 101 359 l 2
 101 394 93 401 36 401 c 2
 25 401 l 1
 25 430 l 1
 407 430 l 1
 418 265 l 1
 386 265 l 1
EndSplineSet
EndChar

StartChar: delta
Encoding: 948 948 126
Width: 576
Flags: W
LayerCount: 2
Fore
SplineSet
10 0 m 1
 10 39 l 1
 33 39 57 41 73 62 c 0
 130 140 147 166 161 192 c 0
 176 218 189 245 239 323 c 1
 180 447 168 459 100 459 c 1
 100 490 l 1
 201 488 l 2
 227 488 235 481 249 454 c 2
 455 78 l 2
 476 39 518 38 555 38 c 1
 555 0 l 1
 10 0 l 1
267 276 m 1
 206 189 144 81 144 61 c 0
 144 46 216 46 264 46 c 0
 309 46 356 54 378 62 c 1
 360 104 297 231 267 276 c 1
EndSplineSet
EndChar

StartChar: epsilon
Encoding: 949 949 127
Width: 457
Flags: W
LayerCount: 2
Fore
SplineSet
258 -14 m 0
 140 -14 36 87 36 219 c 0
 36 350 139 451 258 451 c 0
 318 451 374 448 419 376 c 1
 419 333 l 2
 419 317 418 311 405 311 c 0
 394 311 391 319 388 328 c 0
 369 391 325 420 258 420 c 0
 232 420 123 403 123 218 c 0
 123 33 238 18 265 18 c 0
 332 18 362 43 394 89 c 0
 404 102 422 95 422 86 c 0
 422 82 420 79 419 77 c 0
 390 21 343 -14 258 -14 c 0
300 138 m 1
 300 193 300 199 245 203 c 2
 101 214 l 1
 101 239 l 1
 245 249 l 2
 300 253 300 259 300 313 c 1
 334 313 l 1
 334 138 l 1
 300 138 l 1
EndSplineSet
EndChar

StartChar: zeta
Encoding: 950 950 128
Width: 419
Flags: W
LayerCount: 2
Fore
SplineSet
170 186 m 0
 170 143 228 135 264 133 c 0
 295 131 338 122 338 78 c 0
 338 13 275 -39 231 -63 c 1
 213 -33 l 1
 242 -17 275 4 275 30 c 0
 275 57 239 64 219 67 c 0
 208 69 196 71 184 73 c 0
 138 81 87 93 87 147 c 0
 87 254 251 346 310 373 c 1
 310 377 l 1
 146 377 l 1
 112 377 l 2
 80 377 62 357 58 283 c 1
 26 283 l 1
 33 430 l 1
 387 430 l 1
 387 371 l 1
 310 337 170 254 170 186 c 0
EndSplineSet
EndChar

StartChar: eta
Encoding: 951 951 129
Width: 555
Flags: W
LayerCount: 2
Fore
SplineSet
410 3 m 2
 406 3 l 2
 392 3 360 3 299 0 c 1
 299 30 l 1
 308 30 l 2
 365 30 375 36 375 74 c 0
 375 80 374 85 374 91 c 2
 374 222 l 1
 179 222 l 1
 179 74 l 2
 179 35 188 30 245 30 c 2
 254 30 l 1
 254 0 l 1
 212 2 175 3 136 3 c 2
 132 3 l 2
 119 3 86 3 25 0 c 1
 25 30 l 1
 37 30 l 2
 94 30 102 37 102 72 c 2
 102 359 l 2
 102 394 93 401 36 401 c 2
 25 401 l 1
 25 430 l 1
 65 428 102 428 138 428 c 0
 176 428 213 428 254 430 c 1
 254 401 l 1
 247 401 l 2
 191 401 179 397 179 359 c 2
 179 251 l 1
 374 251 l 1
 374 359 l 2
 374 397 363 401 307 401 c 2
 299 401 l 1
 299 430 l 1
 339 428 375 428 411 428 c 0
 448 428 487 428 528 430 c 1
 528 401 l 1
 517 401 l 2
 459 401 451 393 451 359 c 2
 451 72 l 2
 451 37 459 30 516 30 c 2
 528 30 l 1
 528 0 l 1
 486 2 448 3 410 3 c 2
EndSplineSet
EndChar

StartChar: theta
Encoding: 952 952 130
Width: 500
Flags: W
LayerCount: 2
Fore
SplineSet
249 -11 m 0
 133 -11 27 83 27 213 c 0
 27 332 118 447 249 447 c 0
 377 447 471 336 471 213 c 0
 471 82 365 -11 249 -11 c 0
249 417 m 0
 205 417 121 395 117 252 c 1
 381 252 l 1
 376 395 292 417 249 417 c 0
381 214 m 1
 117 214 l 1
 118 155 123 87 176 46 c 0
 197 30 223 22 249 22 c 0
 289 22 322 40 345 69 c 0
 375 106 381 157 381 204 c 2
 381 214 l 1
EndSplineSet
EndChar

StartChar: iota
Encoding: 953 953 131
Width: 286
Flags: W
LayerCount: 2
Fore
SplineSet
143 3 m 0
 101 3 69 1 33 0 c 1
 33 30 l 1
 45 30 l 2
 101 30 108 37 108 72 c 2
 108 361 l 2
 108 398 98 403 42 403 c 2
 33 403 l 1
 33 432 l 1
 72 430 106 430 142 430 c 0
 180 430 217 430 259 432 c 1
 259 403 l 1
 248 403 l 2
 185 403 184 394 184 343 c 2
 184 91 l 2
 184 40 185 30 248 30 c 2
 259 30 l 1
 259 0 l 1
 217 2 181 3 143 3 c 0
EndSplineSet
EndChar

StartChar: kappa
Encoding: 954 954 132
Width: 555
Flags: W
LayerCount: 2
Fore
SplineSet
445 3 m 0
 410 3 376 2 336 0 c 1
 336 30 l 1
 357 31 370 34 370 49 c 0
 370 63 357 81 333 111 c 0
 310 140 278 178 241 229 c 1
 225 217 212 207 203 200 c 0
 198 196 179 182 176 174 c 0
 175 171 176 167 176 164 c 2
 176 96 l 2
 176 81 176 69 177 60 c 0
 178 51 180 45 183 41 c 0
 191 33 206 30 244 30 c 2
 252 30 l 1
 252 0 l 1
 211 2 174 3 136 3 c 0
 115 3 82 3 25 0 c 1
 25 30 l 1
 37 30 l 2
 94 30 102 37 102 72 c 2
 102 359 l 2
 102 394 94 401 36 401 c 2
 25 401 l 1
 25 430 l 1
 66 428 104 428 142 428 c 0
 163 428 195 427 252 430 c 1
 252 401 l 1
 244 401 l 2
 185 401 176 395 176 356 c 2
 176 220 l 1
 254 282 294 313 316 330 c 0
 329 341 360 365 360 386 c 0
 360 394 353 398 343 402 c 1
 343 430 l 1
 469 428 l 1
 515 430 l 1
 515 401 l 1
 474 398 439 380 403 355 c 0
 368 331 333 300 295 272 c 1
 342 213 376 168 402 134 c 0
 429 100 448 77 462 61 c 0
 490 31 503 31 538 30 c 1
 538 0 l 1
 505 2 475 3 445 3 c 0
EndSplineSet
EndChar

StartChar: lambda
Encoding: 955 955 133
Width: 475
Flags: W
LayerCount: 2
Fore
SplineSet
367 3 m 0
 354 3 340 2 236 0 c 1
 236 38 l 1
 286 38 294 48 294 61 c 0
 294 70 289 83 286 91 c 2
 215 309 l 1
 211 299 208 289 205 279 c 2
 151 108 l 2
 148 99 144 89 144 80 c 0
 144 63 153 42 195 38 c 1
 195 0 l 1
 162 2 134 3 106 3 c 0
 82 3 59 2 32 0 c 1
 32 38 l 1
 77 41 96 58 111 97 c 0
 116 108 119 120 123 133 c 2
 195 356 l 2
 217 425 175 460 109 460 c 2
 100 460 l 1
 100 490 l 1
 213 490 l 2
 240 490 244 482 253 456 c 2
 373 91 l 2
 390 39 394 39 450 38 c 1
 450 0 l 1
 419 2 393 3 367 3 c 0
EndSplineSet
EndChar

StartChar: nu
Encoding: 957 957 134
Width: 552
Flags: W
LayerCount: 2
Fore
SplineSet
450 0 m 0
 436 0 420 11 392 46 c 2
 135 357 l 1
 135 105 l 2
 135 51 164 39 212 38 c 1
 212 0 l 1
 177 2 146 3 116 3 c 0
 86 3 57 2 23 0 c 1
 23 38 l 1
 87 40 100 66 100 106 c 2
 100 389 l 1
 78 394 54 394 30 394 c 2
 23 394 l 1
 23 432 l 1
 140 432 l 2
 165 432 175 422 195 397 c 2
 414 131 l 1
 414 321 l 2
 414 357 410 392 337 394 c 1
 337 432 l 1
 372 430 403 429 433 429 c 0
 463 429 492 430 526 432 c 1
 526 394 l 1
 453 392 449 356 449 325 c 2
 449 105 l 2
 449 51 478 39 526 38 c 1
 526 0 l 1
 491 1 481 0 450 0 c 0
EndSplineSet
EndChar

StartChar: xi
Encoding: 958 958 135
Width: 402
Flags: W
LayerCount: 2
Fore
SplineSet
162 252 m 1
 184 258 196 261 218 261 c 0
 257 261 311 249 311 205 c 0
 311 170 276 141 237 117 c 0
 199 93 153 74 123 60 c 1
 123 57 l 1
 373 57 l 1
 379 -74 l 1
 355 -74 l 1
 355 -63 l 2
 355 -35 352 -11 348 -7 c 0
 344 -2 334 -1 287 -1 c 2
 212 -1 l 1
 32 -1 l 1
 32 46 l 1
 70 68 115 90 152 112 c 0
 189 135 214 156 214 172 c 0
 214 195 181 208 148 208 c 0
 116 208 97 198 69 185 c 1
 62 195 l 1
 62 219 l 1
 273 373 l 1
 212 373 l 2
 84 373 66 373 61 370 c 0
 55 368 51 322 51 306 c 0
 51 304 52 301 40 301 c 2
 28 301 l 1
 35 431 l 1
 364 431 l 1
 364 400 l 1
 162 252 l 1
EndSplineSet
Substitution2: "'salt' Stylistic Alternatives lookup 0-1" xi.alt
EndChar

StartChar: omicron
Encoding: 959 959 136
Width: 500
Flags: W
LayerCount: 2
Fore
SplineSet
249 -11 m 0
 132 -11 28 85 28 214 c 0
 28 339 125 448 250 448 c 0
 371 448 471 342 471 214 c 0
 471 87 370 -11 249 -11 c 0
357 357 m 0
 332 398 291 419 249 419 c 0
 211 419 165 399 140 355 c 0
 118 315 117 267 117 222 c 0
 117 177 119 125 141 85 c 0
 167 41 209 21 250 21 c 0
 298 21 339 49 360 92 c 0
 381 134 382 186 382 222 c 0
 382 260 382 315 357 357 c 0
EndSplineSet
EndChar

StartChar: pi
Encoding: 960 960 137
Width: 555
Flags: W
LayerCount: 2
Fore
SplineSet
410 3 m 2
 406 3 l 2
 392 3 360 3 299 0 c 1
 299 30 l 1
 308 30 l 2
 375 30 375 41 375 84 c 0
 375 93 374 101 374 110 c 2
 374 360 l 2
 374 398 371 401 329 401 c 2
 212 401 l 2
 184 401 179 394 179 367 c 2
 179 72 l 2
 179 37 186 30 244 30 c 2
 254 30 l 1
 254 0 l 1
 212 2 175 3 136 3 c 2
 132 3 l 2
 119 3 86 3 25 0 c 1
 25 30 l 1
 37 30 l 2
 94 30 102 37 102 72 c 2
 102 359 l 2
 102 394 93 401 36 401 c 2
 25 401 l 1
 25 430 l 1
 528 430 l 1
 528 401 l 1
 517 401 l 2
 459 401 451 393 451 359 c 2
 451 72 l 2
 451 37 459 30 516 30 c 2
 528 30 l 1
 528 0 l 1
 486 2 448 3 410 3 c 2
EndSplineSet
EndChar

StartChar: rho
Encoding: 961 961 138
Width: 500
Flags: W
LayerCount: 2
Fore
SplineSet
271 179 m 1
 271 209 l 1
 350 214 375 267 375 302 c 0
 375 340 348 398 260 398 c 2
 203 398 l 2
 183 398 178 396 178 358 c 2
 178 72 l 2
 178 37 186 30 243 30 c 2
 255 30 l 1
 255 0 l 1
 212 2 175 3 137 3 c 0
 94 3 61 1 25 0 c 1
 25 30 l 1
 37 30 l 2
 94 30 102 37 102 72 c 2
 102 358 l 2
 102 393 94 400 37 400 c 2
 25 400 l 1
 25 430 l 1
 282 430 l 2
 390 430 465 373 465 303 c 0
 465 257 423 179 271 179 c 1
EndSplineSet
EndChar

StartChar: sigma1
Encoding: 962 962 139
Width: 457
Flags: W
LayerCount: 2
Fore
SplineSet
258 -14 m 0
 140 -14 36 87 36 219 c 0
 36 350 139 451 258 451 c 0
 318 451 374 448 419 376 c 1
 419 333 l 2
 419 317 418 311 405 311 c 0
 394 311 391 319 388 328 c 0
 369 391 325 420 258 420 c 0
 232 420 123 403 123 218 c 0
 123 33 238 18 265 18 c 0
 332 18 362 43 394 89 c 0
 404 102 422 95 422 86 c 0
 422 82 420 79 419 77 c 0
 390 21 343 -14 258 -14 c 0
EndSplineSet
EndChar

StartChar: sigma
Encoding: 963 963 140
Width: 457
Flags: W
LayerCount: 2
Fore
SplineSet
258 -14 m 0
 140 -14 36 87 36 219 c 0
 36 350 139 451 258 451 c 0
 318 451 374 448 419 376 c 1
 419 333 l 2
 419 317 418 311 405 311 c 0
 394 311 391 319 388 328 c 0
 369 391 325 420 258 420 c 0
 232 420 123 403 123 218 c 0
 123 33 238 18 265 18 c 0
 332 18 362 43 394 89 c 0
 404 102 422 95 422 86 c 0
 422 82 420 79 419 77 c 0
 390 21 343 -14 258 -14 c 0
EndSplineSet
EndChar

StartChar: tau
Encoding: 964 964 141
Width: 500
Flags: W
LayerCount: 2
Fore
SplineSet
442 264 m 1
 435 366 429 401 334 401 c 2
 326 401 l 2
 290 401 287 398 287 348 c 0
 287 337 288 326 288 315 c 2
 288 77 l 2
 288 38 296 30 380 30 c 2
 396 30 l 1
 396 0 l 1
 342 2 293 3 243 3 c 0
 216 3 189 3 104 0 c 1
 104 30 l 1
 119 30 l 2
 200 30 212 37 212 77 c 2
 212 367 l 2
 212 400 203 401 165 401 c 0
 70 401 64 366 57 264 c 1
 25 264 l 1
 36 430 l 1
 463 430 l 1
 474 264 l 1
 442 264 l 1
EndSplineSet
EndChar

StartChar: upsilon
Encoding: 965 965 142
Width: 536
Flags: W
LayerCount: 2
Fore
SplineSet
263 264 m 1
 263 265 l 1
 278 335 315 425 406 428 c 0
 486 430 510 348 510 307 c 0
 510 281 500 241 450 241 c 0
 421 241 413 261 413 276 c 0
 413 296 427 308 450 310 c 0
 465 310 475 316 475 327 c 0
 475 356 395 386 348 336 c 0
 325 312 310 273 303 222 c 0
 300 196 300 193 300 69 c 2
 300 -114 l 2
 300 -149 302 -156 366 -156 c 2
 377 -156 l 1
 377 -195 l 1
 336 -193 297 -192 260 -192 c 0
 238 -192 207 -192 150 -195 c 1
 150 -156 l 1
 158 -156 l 2
 223 -156 227 -150 227 -114 c 2
 227 69 l 2
 227 133 226 180 226 187 c 0
 218 299 181 364 115 364 c 0
 101 364 53 356 48 312 c 0
 46 301 43 296 32 296 c 0
 21 295 16 300 16 311 c 0
 16 355 43 420 101 427 c 0
 182 437 234 372 263 264 c 1
EndSplineSet
Substitution2: "'salt' Stylistic Alternatives lookup 0-1" upsilon.alt
EndChar

StartChar: phi
Encoding: 966 966 143
Width: 458
Flags: W
LayerCount: 2
Fore
SplineSet
265 352 m 1
 377 338 431 287 431 216 c 0
 431 140 371 89 262 78 c 1
 265 81 l 1
 265 79 l 2
 265 45 271 38 341 38 c 2
 360 38 l 1
 360 0 l 1
 289 3 252 3 236 3 c 2
 232 3 l 2
 187 3 143 2 94 0 c 1
 94 38 l 1
 112 38 l 2
 184 38 189 47 189 79 c 1
 189 79 l 1
 110 87 27 126 27 215 c 0
 27 274 69 338 189 351 c 1
 189 387 179 392 107 392 c 2
 94 392 l 1
 94 430 l 1
 143 428 187 427 232 427 c 0
 256 427 294 427 360 430 c 1
 360 392 l 1
 347 392 l 2
 274 392 266 386 265 352 c 1
265 321 m 1
 265 109 l 1
 308 117 354 134 354 214 c 0
 354 277 332 309 265 321 c 1
189 320 m 1
 123 307 104 272 104 216 c 0
 104 155 123 123 189 110 c 1
 189 320 l 1
EndSplineSet
EndChar

StartChar: chi
Encoding: 967 967 144
Width: 528
Flags: W
LayerCount: 2
Fore
SplineSet
292 235 m 1
 422 68 l 2
 444 39 458 30 505 30 c 2
 516 30 l 1
 516 0 l 1
 480 2 449 3 417 3 c 0
 381 3 346 2 306 0 c 1
 306 30 l 1
 333 33 342 43 342 55 c 0
 342 63 332 77 314 100 c 0
 297 122 274 149 250 182 c 1
 214 137 192 112 180 95 c 0
 168 78 166 70 166 60 c 0
 166 39 180 34 196 29 c 1
 196 0 l 1
 160 2 129 3 98 3 c 0
 70 3 44 2 12 0 c 1
 12 30 l 1
 64 33 95 51 125 82 c 0
 140 97 155 116 172 138 c 0
 188 159 207 183 229 209 c 1
 110 363 l 2
 88 392 74 401 27 401 c 2
 17 401 l 1
 17 430 l 1
 49 429 76 428 112 428 c 0
 149 428 185 428 226 430 c 1
 226 401 l 1
 200 398 190 386 190 376 c 0
 190 374 190 373 191 371 c 0
 192 368 194 365 199 358 c 0
 209 344 229 317 272 262 c 1
 296 294 315 315 327 331 c 0
 339 347 345 358 345 371 c 0
 345 386 337 394 325 399 c 0
 321 400 319 400 314 402 c 1
 314 430 l 1
 350 428 382 428 414 428 c 0
 441 428 468 428 498 430 c 1
 498 401 l 1
 420 398 387 354 344 299 c 0
 329 279 312 258 292 235 c 1
EndSplineSet
EndChar

StartChar: psi
Encoding: 968 968 145
Width: 583
Flags: W
LayerCount: 2
Fore
SplineSet
543 304 m 0
 524 291 500 282 488 260 c 0
 482 248 477 235 472 222 c 0
 445 159 397 121 326 109 c 1
 326 79 l 2
 326 45 332 38 402 38 c 2
 422 38 l 1
 422 0 l 1
 350 3 313 3 297 3 c 2
 293 3 l 2
 248 3 203 2 154 0 c 1
 154 38 l 1
 173 38 l 2
 245 38 250 47 250 79 c 2
 250 109 l 1
 179 121 131 159 104 222 c 0
 89 259 88 271 51 293 c 0
 45 297 24 307 24 316 c 0
 24 328 38 331 54 331 c 2
 67 331 l 2
 103 331 140 296 158 259 c 0
 162 250 166 240 170 229 c 0
 186 188 206 159 250 143 c 1
 250 350 l 2
 250 387 240 392 168 392 c 2
 154 392 l 1
 154 430 l 1
 203 428 248 427 293 427 c 0
 318 427 355 427 422 430 c 1
 422 392 l 1
 408 392 l 2
 334 392 326 386 326 350 c 2
 326 143 l 1
 370 159 390 188 406 229 c 0
 410 240 414 250 418 259 c 0
 436 296 473 331 509 331 c 2
 522 331 l 2
 538 331 552 328 552 316 c 0
 552 313 549 308 543 304 c 0
EndSplineSet
EndChar

StartChar: omega
Encoding: 969 969 146
Width: 779
Flags: W
LayerCount: 2
Fore
SplineSet
388 78 m 1
 346 0 271 -11 235 -11 c 0
 124 -11 33 82 33 210 c 0
 33 348 140 432 246 432 c 0
 252 432 265 428 265 416 c 0
 265 405 255 402 248 402 c 0
 199 402 124 367 124 211 c 0
 124 92 172 22 241 22 c 0
 296 22 351 58 351 94 c 2
 351 264 l 2
 351 303 339 303 300 304 c 1
 300 335 l 1
 322 334 349 332 393 332 c 0
 420 332 445 333 476 335 c 1
 476 304 l 1
 466 304 445 305 436 299 c 0
 429 294 426 286 426 264 c 2
 426 94 l 2
 426 78 427 75 439 62 c 0
 466 35 503 22 536 22 c 0
 582 22 653 57 653 211 c 0
 653 368 578 402 529 402 c 0
 522 402 512 405 512 416 c 0
 512 428 525 432 531 432 c 0
 635 432 744 350 744 210 c 0
 744 92 662 -11 542 -11 c 0
 506 -11 431 0 388 78 c 1
EndSplineSet
EndChar

StartChar: iotadieresis
Encoding: 970 970 147
Width: 286
Flags: W
LayerCount: 2
Fore
SplineSet
229 511 m 0
 201 511 179 536 179 563 c 0
 179 586 198 613 230 613 c 0
 259 613 281 588 281 563 c 0
 281 538 262 511 229 511 c 0
57 511 m 0
 28 511 6 536 6 563 c 0
 6 586 25 613 58 613 c 0
 86 613 108 588 108 563 c 0
 108 538 89 511 57 511 c 0
143 3 m 0
 100 3 68 1 32 0 c 1
 32 31 l 1
 44 31 l 2
 101 31 108 37 108 72 c 2
 108 363 l 2
 108 400 97 405 41 405 c 2
 32 405 l 1
 32 435 l 1
 71 432 106 432 142 432 c 0
 180 432 218 432 260 435 c 1
 260 405 l 1
 249 405 l 2
 185 405 184 397 184 345 c 2
 184 92 l 2
 184 40 185 31 249 31 c 2
 260 31 l 1
 260 0 l 1
 218 2 181 3 143 3 c 0
EndSplineSet
EndChar

StartChar: upsilondieresis
Encoding: 971 971 148
Width: 536
Flags: W
LayerCount: 2
Fore
SplineSet
352 511 m 0
 323 511 300 536 300 562 c 0
 300 586 320 613 353 613 c 0
 381 613 404 588 404 562 c 0
 404 538 385 511 352 511 c 0
176 511 m 0
 148 511 125 536 125 562 c 0
 125 586 144 613 177 613 c 0
 206 613 229 588 229 562 c 0
 229 538 209 511 176 511 c 0
263 265 m 1
 263 266 l 1
 278 336 315 427 406 430 c 0
 486 432 510 350 510 308 c 0
 510 283 500 243 450 243 c 0
 421 243 413 262 413 277 c 0
 413 298 427 310 450 311 c 0
 465 312 475 317 475 329 c 0
 475 358 395 388 348 338 c 0
 325 314 310 275 303 223 c 0
 300 197 300 194 300 69 c 2
 300 -114 l 2
 300 -149 302 -156 366 -156 c 2
 377 -156 l 1
 377 -195 l 1
 336 -193 297 -192 260 -192 c 0
 238 -192 207 -192 150 -195 c 1
 150 -156 l 1
 158 -156 l 2
 223 -156 227 -150 227 -114 c 2
 227 69 l 2
 227 134 226 181 226 188 c 0
 218 301 181 365 115 365 c 0
 101 365 53 357 48 313 c 0
 46 303 43 297 32 297 c 0
 21 296 16 301 16 312 c 0
 16 356 43 421 101 429 c 0
 182 439 234 374 263 265 c 1
EndSplineSet
Substitution2: "'salt' Stylistic Alternatives lookup 0-1" upsilondieresis.alt
EndChar

StartChar: omicrontonos
Encoding: 972 972 149
Width: 500
Flags: W
LayerCount: 2
Fore
SplineSet
249 -11 m 0
 132 -11 28 85 28 214 c 0
 28 339 125 448 250 448 c 0
 371 448 471 342 471 214 c 0
 471 87 370 -11 249 -11 c 0
357 357 m 0
 332 398 291 419 249 419 c 0
 211 419 165 399 140 355 c 0
 118 315 117 267 117 222 c 0
 117 177 119 125 141 85 c 0
 167 41 209 21 250 21 c 0
 298 21 339 49 360 92 c 0
 381 134 382 186 382 222 c 0
 382 260 382 315 357 357 c 0
EndSplineSet
EndChar

StartChar: upsilontonos
Encoding: 973 973 150
Width: 536
Flags: W
LayerCount: 2
Fore
SplineSet
263 264 m 1
 263 265 l 1
 278 335 315 425 406 428 c 0
 486 430 510 348 510 307 c 0
 510 281 500 241 450 241 c 0
 421 241 413 261 413 276 c 0
 413 296 427 308 450 310 c 0
 465 310 475 316 475 327 c 0
 475 356 395 386 348 336 c 0
 325 312 310 273 303 222 c 0
 300 196 300 193 300 69 c 2
 300 -114 l 2
 300 -149 302 -156 366 -156 c 2
 377 -156 l 1
 377 -195 l 1
 336 -193 297 -192 260 -192 c 0
 238 -192 207 -192 150 -195 c 1
 150 -156 l 1
 158 -156 l 2
 223 -156 227 -150 227 -114 c 2
 227 69 l 2
 227 133 226 180 226 187 c 0
 218 299 181 364 115 364 c 0
 101 364 53 356 48 312 c 0
 46 301 43 296 32 296 c 0
 21 295 16 300 16 311 c 0
 16 355 43 420 101 427 c 0
 182 437 234 372 263 264 c 1
EndSplineSet
Substitution2: "'salt' Stylistic Alternatives lookup 0-1" upsilontonos.alt
EndChar

StartChar: omegatonos
Encoding: 974 974 151
Width: 779
Flags: W
LayerCount: 2
Fore
SplineSet
388 78 m 1
 346 0 271 -11 235 -11 c 0
 124 -11 33 82 33 210 c 0
 33 348 140 432 246 432 c 0
 252 432 265 428 265 416 c 0
 265 405 255 402 248 402 c 0
 199 402 124 367 124 211 c 0
 124 92 172 22 241 22 c 0
 296 22 351 58 351 94 c 2
 351 264 l 2
 351 303 339 303 300 304 c 1
 300 335 l 1
 322 334 349 332 393 332 c 0
 420 332 445 333 476 335 c 1
 476 304 l 1
 466 304 445 305 436 299 c 0
 429 294 426 286 426 264 c 2
 426 94 l 2
 426 78 427 75 439 62 c 0
 466 35 503 22 536 22 c 0
 582 22 653 57 653 211 c 0
 653 368 578 402 529 402 c 0
 522 402 512 405 512 416 c 0
 512 428 525 432 531 432 c 0
 635 432 744 350 744 210 c 0
 744 92 662 -11 542 -11 c 0
 506 -11 431 0 388 78 c 1
EndSplineSet
EndChar

StartChar: periodcentered
Encoding: 183 183 152
Width: 278
Flags: W
LayerCount: 2
Fore
SplineSet
137 323 m 0
 109 323 85 347 85 375 c 0
 85 406 109 430 139 430 c 0
 168 430 192 406 192 377 c 0
 192 347 168 323 137 323 c 0
EndSplineSet
EndChar

StartChar: upsilondieresistonos.alt
Encoding: 1114113 -1 153
Width: 528
Flags: W
LayerCount: 2
Fore
SplineSet
352 511 m 0
 323 511 300 536 300 562 c 0
 300 586 320 613 353 613 c 0
 381 613 404 588 404 562 c 0
 404 538 385 511 352 511 c 0
176 511 m 0
 147 511 125 536 125 562 c 0
 125 586 144 613 177 613 c 0
 206 613 229 588 229 562 c 0
 229 538 209 511 176 511 c 0
450 369 m 0
 435 349 425 321 416 298 c 2
 307 16 l 2
 301 2 300 -2 300 -14 c 2
 300 -114 l 2
 300 -149 302 -156 366 -156 c 2
 377 -156 l 1
 377 -195 l 1
 336 -193 297 -192 260 -192 c 0
 238 -192 207 -192 150 -195 c 1
 150 -156 l 1
 158 -156 l 2
 223 -156 227 -150 227 -114 c 2
 227 -14 l 2
 227 -2 226 2 220 16 c 2
 87 359 l 2
 71 401 57 402 8 402 c 1
 8 432 l 1
 44 430 75 430 106 430 c 0
 143 430 178 430 219 432 c 1
 219 402 l 1
 201 402 163 403 163 376 c 0
 163 372 164 368 164 364 c 0
 169 351 265 106 285 54 c 1
 290 64 294 75 298 85 c 2
 388 318 l 2
 393 331 400 345 400 360 c 0
 400 385 383 399 353 402 c 1
 353 432 l 1
 385 430 414 430 442 430 c 0
 467 430 491 430 519 432 c 1
 519 402 l 1
 483 400 464 387 450 369 c 0
EndSplineSet
EndChar

StartChar: upsilondieresis.alt
Encoding: 1114114 -1 154
Width: 528
Flags: W
LayerCount: 2
Fore
SplineSet
352 511 m 0
 323 511 300 536 300 562 c 0
 300 586 320 613 353 613 c 0
 381 613 404 588 404 562 c 0
 404 538 385 511 352 511 c 0
176 511 m 0
 147 511 125 536 125 562 c 0
 125 586 144 613 177 613 c 0
 206 613 229 588 229 562 c 0
 229 538 209 511 176 511 c 0
450 369 m 0
 435 349 425 321 416 298 c 2
 307 16 l 2
 301 2 300 -2 300 -14 c 2
 300 -114 l 2
 300 -149 302 -156 366 -156 c 2
 377 -156 l 1
 377 -195 l 1
 336 -193 297 -192 260 -192 c 0
 238 -192 207 -192 150 -195 c 1
 150 -156 l 1
 158 -156 l 2
 223 -156 227 -150 227 -114 c 2
 227 -14 l 2
 227 -2 226 2 220 16 c 2
 87 359 l 2
 71 401 57 402 8 402 c 1
 8 432 l 1
 44 430 75 430 106 430 c 0
 143 430 178 430 219 432 c 1
 219 402 l 1
 201 402 163 403 163 376 c 0
 163 372 164 368 164 364 c 0
 169 351 265 106 285 54 c 1
 290 64 294 75 298 85 c 2
 388 318 l 2
 393 331 400 345 400 360 c 0
 400 385 383 399 353 402 c 1
 353 432 l 1
 385 430 414 430 442 430 c 0
 467 430 491 430 519 432 c 1
 519 402 l 1
 483 400 464 387 450 369 c 0
EndSplineSet
EndChar

StartChar: upsilontonos.alt
Encoding: 1114115 -1 155
Width: 528
Flags: W
LayerCount: 2
Fore
SplineSet
450 367 m 0
 435 347 425 319 416 296 c 2
 307 16 l 2
 301 1 300 -2 300 -14 c 2
 300 -114 l 2
 300 -149 302 -156 366 -156 c 2
 377 -156 l 1
 377 -195 l 1
 336 -193 297 -192 260 -192 c 0
 238 -192 207 -192 150 -195 c 1
 150 -156 l 1
 158 -156 l 2
 223 -156 227 -150 227 -114 c 2
 227 -14 l 2
 227 -2 226 1 220 16 c 2
 87 357 l 2
 71 400 57 400 8 400 c 1
 8 430 l 1
 44 428 75 428 106 428 c 0
 143 428 178 428 219 430 c 1
 219 400 l 1
 201 400 163 401 163 375 c 0
 163 371 164 367 164 363 c 0
 169 349 265 105 285 53 c 1
 290 64 294 74 298 84 c 2
 388 317 l 2
 393 330 400 344 400 358 c 0
 400 383 383 398 353 401 c 1
 353 430 l 1
 385 428 414 428 442 428 c 0
 467 428 491 428 519 430 c 1
 519 401 l 1
 483 398 464 385 450 367 c 0
EndSplineSet
EndChar

StartChar: upsilon.alt
Encoding: 1114116 -1 156
Width: 528
Flags: W
LayerCount: 2
Fore
SplineSet
450 367 m 0
 435 347 425 319 416 296 c 2
 307 16 l 2
 301 1 300 -2 300 -14 c 2
 300 -114 l 2
 300 -149 302 -156 366 -156 c 2
 377 -156 l 1
 377 -195 l 1
 336 -193 297 -192 260 -192 c 0
 238 -192 207 -192 150 -195 c 1
 150 -156 l 1
 158 -156 l 2
 223 -156 227 -150 227 -114 c 2
 227 -14 l 2
 227 -2 226 1 220 16 c 2
 87 357 l 2
 71 400 57 400 8 400 c 1
 8 430 l 1
 44 428 75 428 106 428 c 0
 143 428 178 428 219 430 c 1
 219 400 l 1
 201 400 163 401 163 375 c 0
 163 371 164 367 164 363 c 0
 169 349 265 105 285 53 c 1
 290 64 294 74 298 84 c 2
 388 317 l 2
 393 330 400 344 400 358 c 0
 400 383 383 398 353 401 c 1
 353 430 l 1
 385 428 414 428 442 428 c 0
 467 428 491 428 519 430 c 1
 519 401 l 1
 483 398 464 385 450 367 c 0
EndSplineSet
EndChar

StartChar: ampersand.alt
Encoding: 1114117 -1 157
Width: 880
Flags: W
LayerCount: 2
Fore
SplineSet
822 372 m 1
 796 382 791 384 763 384 c 0
 639 384 555 281 555 169 c 0
 555 68 621 24 671 24 c 0
 709 24 742 46 781 119 c 1
 805 103 821 83 826 57 c 1
 756 -5 680 -8 647 -8 c 0
 612 -8 580 -1 553 11 c 1
 514 -10 466 -22 404 -22 c 0
 218 -22 56 135 56 342 c 0
 56 546 217 704 404 705 c 0
 499 705 670 680 670 537 c 0
 670 501 655 471 629 451 c 1
 629 436 l 1
 758 436 l 2
 766 436 802 438 812 474 c 1
 845 470 l 1
 822 372 l 1
415 666 m 0
 363 666 210 641 174 436 c 1
 470 436 l 2
 540 436 604 459 604 511 c 0
 604 577 551 667 415 666 c 0
612 384 m 1
 168 384 l 1
 167 370 166 355 166 341 c 0
 166 49 357 17 416 17 c 0
 456 17 488 23 516 35 c 1
 483 63 465 103 465 152 c 0
 465 237 493 293 558 343 c 0
 575 356 593 367 612 380 c 1
 612 384 l 1
EndSplineSet
EndChar

StartChar: uni037E
Encoding: 894 894 158
Width: 278
Flags: W
LayerCount: 2
Fore
SplineSet
139 316 m 0
 108 316 86 342 86 373 c 0
 86 407 111 430 139 430 c 0
 168 430 192 405 192 374 c 0
 192 326 150 316 139 316 c 0
166 8 m 1
 157 0 148 -2 139 -2 c 0
 94 -2 85 42 85 54 c 0
 85 84 106 110 138 110 c 0
 185 110 194 60 194 3 c 0
 194 -74 164 -143 129 -183 c 0
 122 -191 117 -194 114 -194 c 0
 110 -194 107 -192 104 -189 c 0
 95 -179 98 -174 109 -161 c 0
 144 -118 164 -60 166 -4 c 0
 166 1 166 5 166 7 c 2
 166 8 l 1
EndSplineSet
EndChar

StartChar: uni0375
Encoding: 885 885 159
Width: 194
Flags: W
LayerCount: 2
Fore
SplineSet
97 -196 m 0
 94 -202 86 -210 81 -214 c 0
 75 -216 73 -216 64 -216 c 0
 40 -216 22 -201 22 -176 c 0
 22 -167 24 -160 33 -147 c 0
 42 -134 59 -114 89 -76 c 2
 153 5 l 1
 161 0 163 -1 165 -2 c 0
 167 -3 169 -5 169 -9 c 0
 169 -10 98 -192 97 -196 c 0
EndSplineSet
EndChar

StartChar: uni0374
Encoding: 884 884 160
Width: 194
Flags: W
LayerCount: 2
Fore
SplineSet
112 682 m 2
 111 681 l 2
 115 688 123 700 141 700 c 0
 165 700 185 684 185 659 c 0
 185 651 185 649 183 643 c 0
 161 611 57 480 53 480 c 0
 47 481 38 489 38 492 c 0
 39 497 106 672 112 682 c 2
EndSplineSet
EndChar

StartChar: xi.alt
Encoding: 1114118 -1 161
Width: 402
Flags: W
LayerCount: 2
Fore
SplineSet
212 373 m 2
 84 373 66 373 61 370 c 0
 55 368 51 322 51 306 c 0
 51 304 52 301 40 301 c 2
 28 301 l 1
 35 431 l 1
 364 431 l 1
 364 373 l 1
 212 373 l 2
355 -74 m 1
 355 -63 l 2
 355 -35 351 -11 348 -7 c 0
 346 -4 343 -3 333 -2 c 0
 324 -1 309 -1 287 -1 c 2
 212 -1 l 1
 32 -1 l 1
 32 46 l 1
 108 89 244 177 244 232 c 0
 244 257 222 271 201 271 c 0
 162 271 132 236 114 207 c 1
 89 215 l 1
 95 248 l 1
 110 294 160 334 225 334 c 0
 275 334 328 306 328 253 c 0
 328 176 174 84 123 60 c 1
 123 57 l 1
 373 57 l 1
 379 -74 l 1
 355 -74 l 1
EndSplineSet
EndChar

StartChar: Xi.alt
Encoding: 1114119 -1 162
Width: 637
Flags: W
LayerCount: 2
Fore
SplineSet
333 599 m 2
 131 599 101 598 93 593 c 0
 84 590 81 545 81 520 c 0
 81 517 80 514 64 514 c 2
 47 514 l 1
 55 677 l 1
 572 677 l 1
 572 599 l 1
 333 599 l 2
560 -97 m 1
 560 -82 l 2
 560 -38 557 -19 551 -10 c 0
 547 -6 541 -4 526 -2 c 0
 511 -1 488 -1 452 -1 c 2
 333 -1 l 1
 50 -1 l 1
 50 62 l 1
 171 115 409 262 409 366 c 0
 409 407 371 440 311 440 c 0
 256 440 216 410 181 321 c 1
 153 329 l 1
 153 366 l 1
 200 494 273 522 348 522 c 0
 426 522 509 477 509 391 c 0
 509 267 281 136 190 86 c 1
 190 77 l 1
 290 77 586 73 586 72 c 2
 594 -97 l 1
 560 -97 l 1
EndSplineSet
EndChar

StartChar: uni03BC
Encoding: 956 956 163
Width: 749
Flags: W
LayerCount: 2
Fore
SplineSet
700 21 m 0
 682 5 664 -4 638 -4 c 0
 567 -4 520 58 500 116 c 1
 498 117 l 1
 474 46 442 -8 362 -8 c 0
 289 -8 243 52 218 108 c 1
 210 109 l 1
 189 54 150 -6 78 -6 c 0
 60 -6 42 -2 26 7 c 1
 26 37 l 1
 34 37 38 36 42 36 c 0
 171 34 187 164 187 268 c 0
 187 333 182 364 171 380 c 0
 162 393 148 395 134 397 c 0
 127 398 121 399 110 400 c 1
 110 430 l 1
 160 428 239 427 261 428 c 1
 257 399 256 380 256 348 c 0
 256 198 257 53 377 53 c 0
 455 53 491 186 491 297 c 0
 491 346 484 410 481 428 c 1
 519 428 586 428 636 429 c 1
 637 398 l 1
 621 397 610 397 600 395 c 0
 591 394 584 391 579 385 c 0
 567 374 561 349 561 295 c 0
 561 185 583 46 655 46 c 0
 673 46 683 50 705 67 c 1
 717 37 l 1
 710 30 705 26 700 21 c 0
EndSplineSet
EndChar

StartChar: uni03A9
Encoding: 937 937 164
Width: 1000
Flags: W
LayerCount: 2
Fore
SplineSet
692 -22 m 0
 580 -22 526 38 499 81 c 1
 446 -13 346 -22 307 -22 c 0
 161 -22 55 143 55 341 c 0
 55 546 173 705 317 705 c 0
 323 705 336 701 336 689 c 0
 336 679 329 672 320 672 c 0
 260 672 165 604 165 345 c 0
 165 137 227 13 315 13 c 0
 337 13 449 32 453 80 c 0
 454 84 453 87 453 91 c 2
 453 487 l 2
 453 509 449 516 429 518 c 0
 423 519 415 519 403 519 c 1
 403 557 l 1
 436 555 463 555 492 555 c 0
 516 555 559 554 596 557 c 1
 596 519 l 1
 586 519 565 519 555 514 c 0
 549 511 545 504 545 487 c 2
 545 91 l 2
 545 72 545 69 562 54 c 0
 598 23 647 13 684 13 c 2
 685 13 l 2
 772 13 833 139 833 345 c 0
 833 606 739 672 679 672 c 0
 670 672 663 679 663 689 c 0
 663 701 676 705 682 705 c 0
 760 705 829 658 877 585 c 0
 924 512 944 426 944 341 c 0
 944 144 837 -22 692 -22 c 0
EndSplineSet
EndChar

StartChar: uni0394
Encoding: 916 916 165
Width: 750
Flags: W
LayerCount: 2
Fore
SplineSet
18 0 m 1
 18 40 l 1
 41 40 66 42 81 63 c 0
 196 218 249 319 351 479 c 1
 330 524 316 546 314 548 c 0
 275 609 218 641 158 641 c 1
 158 683 l 1
 220 680 286 679 362 683 c 1
 639 63 l 2
 647 44 659 40 711 40 c 2
 731 40 l 1
 731 0 l 1
 18 0 l 1
378 421 m 1
 289 295 179 97 179 68 c 0
 179 46 297 45 367 45 c 0
 432 45 502 57 533 68 c 1
 506 129 413 339 378 421 c 1
EndSplineSet
EndChar

